<?xml version="1.0" encoding="utf-8" standalone="no"?>
<!DOCTYPE svg PUBLIC "-//W3C//DTD SVG 1.1//EN"
  "http://www.w3.org/Graphics/SVG/1.1/DTD/svg11.dtd">
<svg xmlns:xlink="http://www.w3.org/1999/xlink" width="720pt" height="360pt" viewBox="0 0 720 360" xmlns="http://www.w3.org/2000/svg" version="1.1">
 <metadata>
  <rdf:RDF xmlns:dc="http://purl.org/dc/elements/1.1/" xmlns:cc="http://creativecommons.org/ns#" xmlns:rdf="http://www.w3.org/1999/02/22-rdf-syntax-ns#">
   <cc:Work>
    <dc:type rdf:resource="http://purl.org/dc/dcmitype/StillImage"/>
    <dc:date>2025-12-25T09:55:23.818071</dc:date>
    <dc:format>image/svg+xml</dc:format>
    <dc:creator>
     <cc:Agent>
      <dc:title>Matplotlib v3.9.4, https://matplotlib.org/</dc:title>
     </cc:Agent>
    </dc:creator>
   </cc:Work>
  </rdf:RDF>
 </metadata>
 <defs>
  <style type="text/css">*{stroke-linejoin: round; stroke-linecap: butt}</style>
 </defs>
 <g id="figure_1">
  <g id="patch_1">
   <path d="M 0 360 
L 720 360 
L 720 0 
L 0 0 
z
" style="fill: #ffffff"/>
  </g>
  <g id="axes_1">
   <g id="patch_2">
    <path d="M 50.6 315.16 
L 709.2 315.16 
L 709.2 14.76 
L 50.6 14.76 
z
" style="fill: #ffffff"/>
   </g>
   <g id="matplotlib.axis_1">
    <g id="xtick_1">
     <g id="line2d_1">
      <path d="M 50.6 315.16 
L 50.6 14.76 
" clip-path="url(#peb904eb182)" style="fill: none; stroke-dasharray: 2.96,1.28; stroke-dashoffset: 0; stroke: #b0b0b0; stroke-opacity: 0.6; stroke-width: 0.8"/>
     </g>
     <g id="line2d_2">
      <defs>
       <path id="m1800197886" d="M 0 0 
L 0 3.5 
" style="stroke: #000000; stroke-width: 0.8"/>
      </defs>
      <g>
       <use xlink:href="#m1800197886" x="50.6" y="315.16" style="stroke: #000000; stroke-width: 0.8"/>
      </g>
     </g>
     <g id="text_1">
      <!-- 0 -->
      <g transform="translate(47.41875 329.758438) scale(0.1 -0.1)">
       <defs>
        <path id="DejaVuSans-30" d="M 2034 4250 
Q 1547 4250 1301 3770 
Q 1056 3291 1056 2328 
Q 1056 1369 1301 889 
Q 1547 409 2034 409 
Q 2525 409 2770 889 
Q 3016 1369 3016 2328 
Q 3016 3291 2770 3770 
Q 2525 4250 2034 4250 
z
M 2034 4750 
Q 2819 4750 3233 4129 
Q 3647 3509 3647 2328 
Q 3647 1150 3233 529 
Q 2819 -91 2034 -91 
Q 1250 -91 836 529 
Q 422 1150 422 2328 
Q 422 3509 836 4129 
Q 1250 4750 2034 4750 
z
" transform="scale(0.015625)"/>
       </defs>
       <use xlink:href="#DejaVuSans-30"/>
      </g>
     </g>
    </g>
    <g id="xtick_2">
     <g id="line2d_3">
      <path d="M 149.082243 315.16 
L 149.082243 14.76 
" clip-path="url(#peb904eb182)" style="fill: none; stroke-dasharray: 2.96,1.28; stroke-dashoffset: 0; stroke: #b0b0b0; stroke-opacity: 0.6; stroke-width: 0.8"/>
     </g>
     <g id="line2d_4">
      <g>
       <use xlink:href="#m1800197886" x="149.082243" y="315.16" style="stroke: #000000; stroke-width: 0.8"/>
      </g>
     </g>
     <g id="text_2">
      <!-- 2k -->
      <g transform="translate(143.00568 329.758438) scale(0.1 -0.1)">
       <defs>
        <path id="DejaVuSans-32" d="M 1228 531 
L 3431 531 
L 3431 0 
L 469 0 
L 469 531 
Q 828 903 1448 1529 
Q 2069 2156 2228 2338 
Q 2531 2678 2651 2914 
Q 2772 3150 2772 3378 
Q 2772 3750 2511 3984 
Q 2250 4219 1831 4219 
Q 1534 4219 1204 4116 
Q 875 4013 500 3803 
L 500 4441 
Q 881 4594 1212 4672 
Q 1544 4750 1819 4750 
Q 2544 4750 2975 4387 
Q 3406 4025 3406 3419 
Q 3406 3131 3298 2873 
Q 3191 2616 2906 2266 
Q 2828 2175 2409 1742 
Q 1991 1309 1228 531 
z
" transform="scale(0.015625)"/>
        <path id="DejaVuSans-6b" d="M 581 4863 
L 1159 4863 
L 1159 1991 
L 2875 3500 
L 3609 3500 
L 1753 1863 
L 3688 0 
L 2938 0 
L 1159 1709 
L 1159 0 
L 581 0 
L 581 4863 
z
" transform="scale(0.015625)"/>
       </defs>
       <use xlink:href="#DejaVuSans-32"/>
       <use xlink:href="#DejaVuSans-6b" x="63.623047"/>
      </g>
     </g>
    </g>
    <g id="xtick_3">
     <g id="line2d_5">
      <path d="M 247.564486 315.16 
L 247.564486 14.76 
" clip-path="url(#peb904eb182)" style="fill: none; stroke-dasharray: 2.96,1.28; stroke-dashoffset: 0; stroke: #b0b0b0; stroke-opacity: 0.6; stroke-width: 0.8"/>
     </g>
     <g id="line2d_6">
      <g>
       <use xlink:href="#m1800197886" x="247.564486" y="315.16" style="stroke: #000000; stroke-width: 0.8"/>
      </g>
     </g>
     <g id="text_3">
      <!-- 4k -->
      <g transform="translate(241.487923 329.758438) scale(0.1 -0.1)">
       <defs>
        <path id="DejaVuSans-34" d="M 2419 4116 
L 825 1625 
L 2419 1625 
L 2419 4116 
z
M 2253 4666 
L 3047 4666 
L 3047 1625 
L 3713 1625 
L 3713 1100 
L 3047 1100 
L 3047 0 
L 2419 0 
L 2419 1100 
L 313 1100 
L 313 1709 
L 2253 4666 
z
" transform="scale(0.015625)"/>
       </defs>
       <use xlink:href="#DejaVuSans-34"/>
       <use xlink:href="#DejaVuSans-6b" x="63.623047"/>
      </g>
     </g>
    </g>
    <g id="xtick_4">
     <g id="line2d_7">
      <path d="M 346.046729 315.16 
L 346.046729 14.76 
" clip-path="url(#peb904eb182)" style="fill: none; stroke-dasharray: 2.96,1.28; stroke-dashoffset: 0; stroke: #b0b0b0; stroke-opacity: 0.6; stroke-width: 0.8"/>
     </g>
     <g id="line2d_8">
      <g>
       <use xlink:href="#m1800197886" x="346.046729" y="315.16" style="stroke: #000000; stroke-width: 0.8"/>
      </g>
     </g>
     <g id="text_4">
      <!-- 6k -->
      <g transform="translate(339.970166 329.758438) scale(0.1 -0.1)">
       <defs>
        <path id="DejaVuSans-36" d="M 2113 2584 
Q 1688 2584 1439 2293 
Q 1191 2003 1191 1497 
Q 1191 994 1439 701 
Q 1688 409 2113 409 
Q 2538 409 2786 701 
Q 3034 994 3034 1497 
Q 3034 2003 2786 2293 
Q 2538 2584 2113 2584 
z
M 3366 4563 
L 3366 3988 
Q 3128 4100 2886 4159 
Q 2644 4219 2406 4219 
Q 1781 4219 1451 3797 
Q 1122 3375 1075 2522 
Q 1259 2794 1537 2939 
Q 1816 3084 2150 3084 
Q 2853 3084 3261 2657 
Q 3669 2231 3669 1497 
Q 3669 778 3244 343 
Q 2819 -91 2113 -91 
Q 1303 -91 875 529 
Q 447 1150 447 2328 
Q 447 3434 972 4092 
Q 1497 4750 2381 4750 
Q 2619 4750 2861 4703 
Q 3103 4656 3366 4563 
z
" transform="scale(0.015625)"/>
       </defs>
       <use xlink:href="#DejaVuSans-36"/>
       <use xlink:href="#DejaVuSans-6b" x="63.623047"/>
      </g>
     </g>
    </g>
    <g id="xtick_5">
     <g id="line2d_9">
      <path d="M 444.528972 315.16 
L 444.528972 14.76 
" clip-path="url(#peb904eb182)" style="fill: none; stroke-dasharray: 2.96,1.28; stroke-dashoffset: 0; stroke: #b0b0b0; stroke-opacity: 0.6; stroke-width: 0.8"/>
     </g>
     <g id="line2d_10">
      <g>
       <use xlink:href="#m1800197886" x="444.528972" y="315.16" style="stroke: #000000; stroke-width: 0.8"/>
      </g>
     </g>
     <g id="text_5">
      <!-- 8k -->
      <g transform="translate(438.452409 329.758438) scale(0.1 -0.1)">
       <defs>
        <path id="DejaVuSans-38" d="M 2034 2216 
Q 1584 2216 1326 1975 
Q 1069 1734 1069 1313 
Q 1069 891 1326 650 
Q 1584 409 2034 409 
Q 2484 409 2743 651 
Q 3003 894 3003 1313 
Q 3003 1734 2745 1975 
Q 2488 2216 2034 2216 
z
M 1403 2484 
Q 997 2584 770 2862 
Q 544 3141 544 3541 
Q 544 4100 942 4425 
Q 1341 4750 2034 4750 
Q 2731 4750 3128 4425 
Q 3525 4100 3525 3541 
Q 3525 3141 3298 2862 
Q 3072 2584 2669 2484 
Q 3125 2378 3379 2068 
Q 3634 1759 3634 1313 
Q 3634 634 3220 271 
Q 2806 -91 2034 -91 
Q 1263 -91 848 271 
Q 434 634 434 1313 
Q 434 1759 690 2068 
Q 947 2378 1403 2484 
z
M 1172 3481 
Q 1172 3119 1398 2916 
Q 1625 2713 2034 2713 
Q 2441 2713 2670 2916 
Q 2900 3119 2900 3481 
Q 2900 3844 2670 4047 
Q 2441 4250 2034 4250 
Q 1625 4250 1398 4047 
Q 1172 3844 1172 3481 
z
" transform="scale(0.015625)"/>
       </defs>
       <use xlink:href="#DejaVuSans-38"/>
       <use xlink:href="#DejaVuSans-6b" x="63.623047"/>
      </g>
     </g>
    </g>
    <g id="xtick_6">
     <g id="line2d_11">
      <path d="M 543.011215 315.16 
L 543.011215 14.76 
" clip-path="url(#peb904eb182)" style="fill: none; stroke-dasharray: 2.96,1.28; stroke-dashoffset: 0; stroke: #b0b0b0; stroke-opacity: 0.6; stroke-width: 0.8"/>
     </g>
     <g id="line2d_12">
      <g>
       <use xlink:href="#m1800197886" x="543.011215" y="315.16" style="stroke: #000000; stroke-width: 0.8"/>
      </g>
     </g>
     <g id="text_6">
      <!-- 10k -->
      <g transform="translate(533.753402 329.758438) scale(0.1 -0.1)">
       <defs>
        <path id="DejaVuSans-31" d="M 794 531 
L 1825 531 
L 1825 4091 
L 703 3866 
L 703 4441 
L 1819 4666 
L 2450 4666 
L 2450 531 
L 3481 531 
L 3481 0 
L 794 0 
L 794 531 
z
" transform="scale(0.015625)"/>
       </defs>
       <use xlink:href="#DejaVuSans-31"/>
       <use xlink:href="#DejaVuSans-30" x="63.623047"/>
       <use xlink:href="#DejaVuSans-6b" x="127.246094"/>
      </g>
     </g>
    </g>
    <g id="xtick_7">
     <g id="line2d_13">
      <path d="M 641.493458 315.16 
L 641.493458 14.76 
" clip-path="url(#peb904eb182)" style="fill: none; stroke-dasharray: 2.96,1.28; stroke-dashoffset: 0; stroke: #b0b0b0; stroke-opacity: 0.6; stroke-width: 0.8"/>
     </g>
     <g id="line2d_14">
      <g>
       <use xlink:href="#m1800197886" x="641.493458" y="315.16" style="stroke: #000000; stroke-width: 0.8"/>
      </g>
     </g>
     <g id="text_7">
      <!-- 12k -->
      <g transform="translate(632.235645 329.758438) scale(0.1 -0.1)">
       <use xlink:href="#DejaVuSans-31"/>
       <use xlink:href="#DejaVuSans-32" x="63.623047"/>
       <use xlink:href="#DejaVuSans-6b" x="127.246094"/>
      </g>
     </g>
    </g>
    <g id="text_8">
     <!-- Global Step -->
     <g style="fill: #0000ff" transform="translate(345.190938 344.95625) scale(0.12 -0.12)">
      <defs>
       <path id="DejaVuSans-47" d="M 3809 666 
L 3809 1919 
L 2778 1919 
L 2778 2438 
L 4434 2438 
L 4434 434 
Q 4069 175 3628 42 
Q 3188 -91 2688 -91 
Q 1594 -91 976 548 
Q 359 1188 359 2328 
Q 359 3472 976 4111 
Q 1594 4750 2688 4750 
Q 3144 4750 3555 4637 
Q 3966 4525 4313 4306 
L 4313 3634 
Q 3963 3931 3569 4081 
Q 3175 4231 2741 4231 
Q 1884 4231 1454 3753 
Q 1025 3275 1025 2328 
Q 1025 1384 1454 906 
Q 1884 428 2741 428 
Q 3075 428 3337 486 
Q 3600 544 3809 666 
z
" transform="scale(0.015625)"/>
       <path id="DejaVuSans-6c" d="M 603 4863 
L 1178 4863 
L 1178 0 
L 603 0 
L 603 4863 
z
" transform="scale(0.015625)"/>
       <path id="DejaVuSans-6f" d="M 1959 3097 
Q 1497 3097 1228 2736 
Q 959 2375 959 1747 
Q 959 1119 1226 758 
Q 1494 397 1959 397 
Q 2419 397 2687 759 
Q 2956 1122 2956 1747 
Q 2956 2369 2687 2733 
Q 2419 3097 1959 3097 
z
M 1959 3584 
Q 2709 3584 3137 3096 
Q 3566 2609 3566 1747 
Q 3566 888 3137 398 
Q 2709 -91 1959 -91 
Q 1206 -91 779 398 
Q 353 888 353 1747 
Q 353 2609 779 3096 
Q 1206 3584 1959 3584 
z
" transform="scale(0.015625)"/>
       <path id="DejaVuSans-62" d="M 3116 1747 
Q 3116 2381 2855 2742 
Q 2594 3103 2138 3103 
Q 1681 3103 1420 2742 
Q 1159 2381 1159 1747 
Q 1159 1113 1420 752 
Q 1681 391 2138 391 
Q 2594 391 2855 752 
Q 3116 1113 3116 1747 
z
M 1159 2969 
Q 1341 3281 1617 3432 
Q 1894 3584 2278 3584 
Q 2916 3584 3314 3078 
Q 3713 2572 3713 1747 
Q 3713 922 3314 415 
Q 2916 -91 2278 -91 
Q 1894 -91 1617 61 
Q 1341 213 1159 525 
L 1159 0 
L 581 0 
L 581 4863 
L 1159 4863 
L 1159 2969 
z
" transform="scale(0.015625)"/>
       <path id="DejaVuSans-61" d="M 2194 1759 
Q 1497 1759 1228 1600 
Q 959 1441 959 1056 
Q 959 750 1161 570 
Q 1363 391 1709 391 
Q 2188 391 2477 730 
Q 2766 1069 2766 1631 
L 2766 1759 
L 2194 1759 
z
M 3341 1997 
L 3341 0 
L 2766 0 
L 2766 531 
Q 2569 213 2275 61 
Q 1981 -91 1556 -91 
Q 1019 -91 701 211 
Q 384 513 384 1019 
Q 384 1609 779 1909 
Q 1175 2209 1959 2209 
L 2766 2209 
L 2766 2266 
Q 2766 2663 2505 2880 
Q 2244 3097 1772 3097 
Q 1472 3097 1187 3025 
Q 903 2953 641 2809 
L 641 3341 
Q 956 3463 1253 3523 
Q 1550 3584 1831 3584 
Q 2591 3584 2966 3190 
Q 3341 2797 3341 1997 
z
" transform="scale(0.015625)"/>
       <path id="DejaVuSans-20" transform="scale(0.015625)"/>
       <path id="DejaVuSans-53" d="M 3425 4513 
L 3425 3897 
Q 3066 4069 2747 4153 
Q 2428 4238 2131 4238 
Q 1616 4238 1336 4038 
Q 1056 3838 1056 3469 
Q 1056 3159 1242 3001 
Q 1428 2844 1947 2747 
L 2328 2669 
Q 3034 2534 3370 2195 
Q 3706 1856 3706 1288 
Q 3706 609 3251 259 
Q 2797 -91 1919 -91 
Q 1588 -91 1214 -16 
Q 841 59 441 206 
L 441 856 
Q 825 641 1194 531 
Q 1563 422 1919 422 
Q 2459 422 2753 634 
Q 3047 847 3047 1241 
Q 3047 1584 2836 1778 
Q 2625 1972 2144 2069 
L 1759 2144 
Q 1053 2284 737 2584 
Q 422 2884 422 3419 
Q 422 4038 858 4394 
Q 1294 4750 2059 4750 
Q 2388 4750 2728 4690 
Q 3069 4631 3425 4513 
z
" transform="scale(0.015625)"/>
       <path id="DejaVuSans-74" d="M 1172 4494 
L 1172 3500 
L 2356 3500 
L 2356 3053 
L 1172 3053 
L 1172 1153 
Q 1172 725 1289 603 
Q 1406 481 1766 481 
L 2356 481 
L 2356 0 
L 1766 0 
Q 1100 0 847 248 
Q 594 497 594 1153 
L 594 3053 
L 172 3053 
L 172 3500 
L 594 3500 
L 594 4494 
L 1172 4494 
z
" transform="scale(0.015625)"/>
       <path id="DejaVuSans-65" d="M 3597 1894 
L 3597 1613 
L 953 1613 
Q 991 1019 1311 708 
Q 1631 397 2203 397 
Q 2534 397 2845 478 
Q 3156 559 3463 722 
L 3463 178 
Q 3153 47 2828 -22 
Q 2503 -91 2169 -91 
Q 1331 -91 842 396 
Q 353 884 353 1716 
Q 353 2575 817 3079 
Q 1281 3584 2069 3584 
Q 2775 3584 3186 3129 
Q 3597 2675 3597 1894 
z
M 3022 2063 
Q 3016 2534 2758 2815 
Q 2500 3097 2075 3097 
Q 1594 3097 1305 2825 
Q 1016 2553 972 2059 
L 3022 2063 
z
" transform="scale(0.015625)"/>
       <path id="DejaVuSans-70" d="M 1159 525 
L 1159 -1331 
L 581 -1331 
L 581 3500 
L 1159 3500 
L 1159 2969 
Q 1341 3281 1617 3432 
Q 1894 3584 2278 3584 
Q 2916 3584 3314 3078 
Q 3713 2572 3713 1747 
Q 3713 922 3314 415 
Q 2916 -91 2278 -91 
Q 1894 -91 1617 61 
Q 1341 213 1159 525 
z
M 3116 1747 
Q 3116 2381 2855 2742 
Q 2594 3103 2138 3103 
Q 1681 3103 1420 2742 
Q 1159 2381 1159 1747 
Q 1159 1113 1420 752 
Q 1681 391 2138 391 
Q 2594 391 2855 752 
Q 3116 1113 3116 1747 
z
" transform="scale(0.015625)"/>
      </defs>
      <use xlink:href="#DejaVuSans-47"/>
      <use xlink:href="#DejaVuSans-6c" x="77.490234"/>
      <use xlink:href="#DejaVuSans-6f" x="105.273438"/>
      <use xlink:href="#DejaVuSans-62" x="166.455078"/>
      <use xlink:href="#DejaVuSans-61" x="229.931641"/>
      <use xlink:href="#DejaVuSans-6c" x="291.210938"/>
      <use xlink:href="#DejaVuSans-20" x="318.994141"/>
      <use xlink:href="#DejaVuSans-53" x="350.78125"/>
      <use xlink:href="#DejaVuSans-74" x="414.257812"/>
      <use xlink:href="#DejaVuSans-65" x="453.466797"/>
      <use xlink:href="#DejaVuSans-70" x="514.990234"/>
     </g>
    </g>
   </g>
   <g id="matplotlib.axis_2">
    <g id="ytick_1">
     <g id="line2d_15">
      <path d="M 50.6 315.16 
L 709.2 315.16 
" clip-path="url(#peb904eb182)" style="fill: none; stroke-dasharray: 2.96,1.28; stroke-dashoffset: 0; stroke: #b0b0b0; stroke-opacity: 0.6; stroke-width: 0.8"/>
     </g>
     <g id="line2d_16">
      <defs>
       <path id="mf691598ba9" d="M 0 0 
L -3.5 0 
" style="stroke: #000000; stroke-width: 0.8"/>
      </defs>
      <g>
       <use xlink:href="#mf691598ba9" x="50.6" y="315.16" style="stroke: #000000; stroke-width: 0.8"/>
      </g>
     </g>
     <g id="text_9">
      <!-- 0.1 -->
      <g transform="translate(27.696875 318.959219) scale(0.1 -0.1)">
       <defs>
        <path id="DejaVuSans-2e" d="M 684 794 
L 1344 794 
L 1344 0 
L 684 0 
L 684 794 
z
" transform="scale(0.015625)"/>
       </defs>
       <use xlink:href="#DejaVuSans-30"/>
       <use xlink:href="#DejaVuSans-2e" x="63.623047"/>
       <use xlink:href="#DejaVuSans-31" x="95.410156"/>
      </g>
     </g>
    </g>
    <g id="ytick_2">
     <g id="line2d_17">
      <path d="M 50.6 255.08 
L 709.2 255.08 
" clip-path="url(#peb904eb182)" style="fill: none; stroke-dasharray: 2.96,1.28; stroke-dashoffset: 0; stroke: #b0b0b0; stroke-opacity: 0.6; stroke-width: 0.8"/>
     </g>
     <g id="line2d_18">
      <g>
       <use xlink:href="#mf691598ba9" x="50.6" y="255.08" style="stroke: #000000; stroke-width: 0.8"/>
      </g>
     </g>
     <g id="text_10">
      <!-- 0.2 -->
      <g transform="translate(27.696875 258.879219) scale(0.1 -0.1)">
       <use xlink:href="#DejaVuSans-30"/>
       <use xlink:href="#DejaVuSans-2e" x="63.623047"/>
       <use xlink:href="#DejaVuSans-32" x="95.410156"/>
      </g>
     </g>
    </g>
    <g id="ytick_3">
     <g id="line2d_19">
      <path d="M 50.6 195 
L 709.2 195 
" clip-path="url(#peb904eb182)" style="fill: none; stroke-dasharray: 2.96,1.28; stroke-dashoffset: 0; stroke: #b0b0b0; stroke-opacity: 0.6; stroke-width: 0.8"/>
     </g>
     <g id="line2d_20">
      <g>
       <use xlink:href="#mf691598ba9" x="50.6" y="195" style="stroke: #000000; stroke-width: 0.8"/>
      </g>
     </g>
     <g id="text_11">
      <!-- 0.3 -->
      <g transform="translate(27.696875 198.799219) scale(0.1 -0.1)">
       <defs>
        <path id="DejaVuSans-33" d="M 2597 2516 
Q 3050 2419 3304 2112 
Q 3559 1806 3559 1356 
Q 3559 666 3084 287 
Q 2609 -91 1734 -91 
Q 1441 -91 1130 -33 
Q 819 25 488 141 
L 488 750 
Q 750 597 1062 519 
Q 1375 441 1716 441 
Q 2309 441 2620 675 
Q 2931 909 2931 1356 
Q 2931 1769 2642 2001 
Q 2353 2234 1838 2234 
L 1294 2234 
L 1294 2753 
L 1863 2753 
Q 2328 2753 2575 2939 
Q 2822 3125 2822 3475 
Q 2822 3834 2567 4026 
Q 2313 4219 1838 4219 
Q 1578 4219 1281 4162 
Q 984 4106 628 3988 
L 628 4550 
Q 988 4650 1302 4700 
Q 1616 4750 1894 4750 
Q 2613 4750 3031 4423 
Q 3450 4097 3450 3541 
Q 3450 3153 3228 2886 
Q 3006 2619 2597 2516 
z
" transform="scale(0.015625)"/>
       </defs>
       <use xlink:href="#DejaVuSans-30"/>
       <use xlink:href="#DejaVuSans-2e" x="63.623047"/>
       <use xlink:href="#DejaVuSans-33" x="95.410156"/>
      </g>
     </g>
    </g>
    <g id="ytick_4">
     <g id="line2d_21">
      <path d="M 50.6 134.92 
L 709.2 134.92 
" clip-path="url(#peb904eb182)" style="fill: none; stroke-dasharray: 2.96,1.28; stroke-dashoffset: 0; stroke: #b0b0b0; stroke-opacity: 0.6; stroke-width: 0.8"/>
     </g>
     <g id="line2d_22">
      <g>
       <use xlink:href="#mf691598ba9" x="50.6" y="134.92" style="stroke: #000000; stroke-width: 0.8"/>
      </g>
     </g>
     <g id="text_12">
      <!-- 0.4 -->
      <g transform="translate(27.696875 138.719219) scale(0.1 -0.1)">
       <use xlink:href="#DejaVuSans-30"/>
       <use xlink:href="#DejaVuSans-2e" x="63.623047"/>
       <use xlink:href="#DejaVuSans-34" x="95.410156"/>
      </g>
     </g>
    </g>
    <g id="ytick_5">
     <g id="line2d_23">
      <path d="M 50.6 74.84 
L 709.2 74.84 
" clip-path="url(#peb904eb182)" style="fill: none; stroke-dasharray: 2.96,1.28; stroke-dashoffset: 0; stroke: #b0b0b0; stroke-opacity: 0.6; stroke-width: 0.8"/>
     </g>
     <g id="line2d_24">
      <g>
       <use xlink:href="#mf691598ba9" x="50.6" y="74.84" style="stroke: #000000; stroke-width: 0.8"/>
      </g>
     </g>
     <g id="text_13">
      <!-- 0.5 -->
      <g transform="translate(27.696875 78.639219) scale(0.1 -0.1)">
       <defs>
        <path id="DejaVuSans-35" d="M 691 4666 
L 3169 4666 
L 3169 4134 
L 1269 4134 
L 1269 2991 
Q 1406 3038 1543 3061 
Q 1681 3084 1819 3084 
Q 2600 3084 3056 2656 
Q 3513 2228 3513 1497 
Q 3513 744 3044 326 
Q 2575 -91 1722 -91 
Q 1428 -91 1123 -41 
Q 819 9 494 109 
L 494 744 
Q 775 591 1075 516 
Q 1375 441 1709 441 
Q 2250 441 2565 725 
Q 2881 1009 2881 1497 
Q 2881 1984 2565 2268 
Q 2250 2553 1709 2553 
Q 1456 2553 1204 2497 
Q 953 2441 691 2322 
L 691 4666 
z
" transform="scale(0.015625)"/>
       </defs>
       <use xlink:href="#DejaVuSans-30"/>
       <use xlink:href="#DejaVuSans-2e" x="63.623047"/>
       <use xlink:href="#DejaVuSans-35" x="95.410156"/>
      </g>
     </g>
    </g>
    <g id="ytick_6">
     <g id="line2d_25">
      <path d="M 50.6 14.76 
L 709.2 14.76 
" clip-path="url(#peb904eb182)" style="fill: none; stroke-dasharray: 2.96,1.28; stroke-dashoffset: 0; stroke: #b0b0b0; stroke-opacity: 0.6; stroke-width: 0.8"/>
     </g>
     <g id="line2d_26">
      <g>
       <use xlink:href="#mf691598ba9" x="50.6" y="14.76" style="stroke: #000000; stroke-width: 0.8"/>
      </g>
     </g>
     <g id="text_14">
      <!-- 0.6 -->
      <g transform="translate(27.696875 18.559219) scale(0.1 -0.1)">
       <use xlink:href="#DejaVuSans-30"/>
       <use xlink:href="#DejaVuSans-2e" x="63.623047"/>
       <use xlink:href="#DejaVuSans-36" x="95.410156"/>
      </g>
     </g>
    </g>
    <g id="text_15">
     <!-- Training Loss -->
     <g transform="translate(21.20125 203.698437) rotate(-90) scale(0.12 -0.12)">
      <defs>
       <path id="DejaVuSans-54" d="M -19 4666 
L 3928 4666 
L 3928 4134 
L 2272 4134 
L 2272 0 
L 1638 0 
L 1638 4134 
L -19 4134 
L -19 4666 
z
" transform="scale(0.015625)"/>
       <path id="DejaVuSans-72" d="M 2631 2963 
Q 2534 3019 2420 3045 
Q 2306 3072 2169 3072 
Q 1681 3072 1420 2755 
Q 1159 2438 1159 1844 
L 1159 0 
L 581 0 
L 581 3500 
L 1159 3500 
L 1159 2956 
Q 1341 3275 1631 3429 
Q 1922 3584 2338 3584 
Q 2397 3584 2469 3576 
Q 2541 3569 2628 3553 
L 2631 2963 
z
" transform="scale(0.015625)"/>
       <path id="DejaVuSans-69" d="M 603 3500 
L 1178 3500 
L 1178 0 
L 603 0 
L 603 3500 
z
M 603 4863 
L 1178 4863 
L 1178 4134 
L 603 4134 
L 603 4863 
z
" transform="scale(0.015625)"/>
       <path id="DejaVuSans-6e" d="M 3513 2113 
L 3513 0 
L 2938 0 
L 2938 2094 
Q 2938 2591 2744 2837 
Q 2550 3084 2163 3084 
Q 1697 3084 1428 2787 
Q 1159 2491 1159 1978 
L 1159 0 
L 581 0 
L 581 3500 
L 1159 3500 
L 1159 2956 
Q 1366 3272 1645 3428 
Q 1925 3584 2291 3584 
Q 2894 3584 3203 3211 
Q 3513 2838 3513 2113 
z
" transform="scale(0.015625)"/>
       <path id="DejaVuSans-67" d="M 2906 1791 
Q 2906 2416 2648 2759 
Q 2391 3103 1925 3103 
Q 1463 3103 1205 2759 
Q 947 2416 947 1791 
Q 947 1169 1205 825 
Q 1463 481 1925 481 
Q 2391 481 2648 825 
Q 2906 1169 2906 1791 
z
M 3481 434 
Q 3481 -459 3084 -895 
Q 2688 -1331 1869 -1331 
Q 1566 -1331 1297 -1286 
Q 1028 -1241 775 -1147 
L 775 -588 
Q 1028 -725 1275 -790 
Q 1522 -856 1778 -856 
Q 2344 -856 2625 -561 
Q 2906 -266 2906 331 
L 2906 616 
Q 2728 306 2450 153 
Q 2172 0 1784 0 
Q 1141 0 747 490 
Q 353 981 353 1791 
Q 353 2603 747 3093 
Q 1141 3584 1784 3584 
Q 2172 3584 2450 3431 
Q 2728 3278 2906 2969 
L 2906 3500 
L 3481 3500 
L 3481 434 
z
" transform="scale(0.015625)"/>
       <path id="DejaVuSans-4c" d="M 628 4666 
L 1259 4666 
L 1259 531 
L 3531 531 
L 3531 0 
L 628 0 
L 628 4666 
z
" transform="scale(0.015625)"/>
       <path id="DejaVuSans-73" d="M 2834 3397 
L 2834 2853 
Q 2591 2978 2328 3040 
Q 2066 3103 1784 3103 
Q 1356 3103 1142 2972 
Q 928 2841 928 2578 
Q 928 2378 1081 2264 
Q 1234 2150 1697 2047 
L 1894 2003 
Q 2506 1872 2764 1633 
Q 3022 1394 3022 966 
Q 3022 478 2636 193 
Q 2250 -91 1575 -91 
Q 1294 -91 989 -36 
Q 684 19 347 128 
L 347 722 
Q 666 556 975 473 
Q 1284 391 1588 391 
Q 1994 391 2212 530 
Q 2431 669 2431 922 
Q 2431 1156 2273 1281 
Q 2116 1406 1581 1522 
L 1381 1569 
Q 847 1681 609 1914 
Q 372 2147 372 2553 
Q 372 3047 722 3315 
Q 1072 3584 1716 3584 
Q 2034 3584 2315 3537 
Q 2597 3491 2834 3397 
z
" transform="scale(0.015625)"/>
      </defs>
      <use xlink:href="#DejaVuSans-54"/>
      <use xlink:href="#DejaVuSans-72" x="46.333984"/>
      <use xlink:href="#DejaVuSans-61" x="87.447266"/>
      <use xlink:href="#DejaVuSans-69" x="148.726562"/>
      <use xlink:href="#DejaVuSans-6e" x="176.509766"/>
      <use xlink:href="#DejaVuSans-69" x="239.888672"/>
      <use xlink:href="#DejaVuSans-6e" x="267.671875"/>
      <use xlink:href="#DejaVuSans-67" x="331.050781"/>
      <use xlink:href="#DejaVuSans-20" x="394.527344"/>
      <use xlink:href="#DejaVuSans-4c" x="426.314453"/>
      <use xlink:href="#DejaVuSans-6f" x="480.277344"/>
      <use xlink:href="#DejaVuSans-73" x="541.458984"/>
      <use xlink:href="#DejaVuSans-73" x="593.558594"/>
     </g>
    </g>
   </g>
   <g id="line2d_27">
    <path d="M 58.686584 -1 
L 65.372336 106.5766 
L 72.758505 129.892374 
L 80.144673 155.787625 
L 87.530841 157.372618 
L 94.917009 175.304887 
L 102.303178 162.591124 
L 109.689346 189.327319 
L 117.075514 188.143212 
L 124.461682 180.130163 
L 131.84785 189.821284 
L 139.234019 200.96654 
L 146.620187 211.180033 
L 154.006355 201.80359 
L 161.392523 210.717015 
L 168.778692 207.077986 
L 176.16486 218.735116 
L 183.551028 213.662742 
L 190.937196 217.028608 
L 198.323364 229.541501 
L 205.709533 220.256344 
L 213.095701 239.954576 
L 220.481869 235.176821 
L 227.868037 233.754162 
L 235.254206 228.734769 
L 242.640374 241.016897 
L 250.026542 244.132646 
L 257.41271 242.55303 
L 264.798879 242.388354 
L 272.185047 256.561248 
L 279.571215 240.412322 
L 286.957383 249.049101 
L 294.343551 248.87488 
L 301.72972 262.483487 
L 309.115888 257.778188 
L 316.502056 249.965515 
L 323.888224 264.380779 
L 331.274393 249.288297 
L 338.660561 262.961312 
L 346.046729 260.588121 
L 353.432897 262.520083 
L 360.819065 268.017102 
L 368.205234 257.486315 
L 375.591402 273.299763 
L 382.97757 271.204994 
L 390.363738 265.003088 
L 397.749907 265.822572 
L 405.136075 269.207228 
L 412.522243 277.762939 
L 419.908411 271.330136 
L 427.294579 280.739779 
L 434.680748 271.851329 
L 442.066916 262.853509 
L 449.453084 282.556507 
L 456.839252 269.514574 
L 464.225421 287.803922 
L 471.611589 276.000101 
L 478.997757 289.307603 
L 486.383925 264.637417 
L 493.770093 285.180479 
L 501.156262 280.27883 
L 508.54243 291.75806 
L 515.928598 271.341978 
L 523.314766 289.117174 
L 530.700935 294.973736 
L 538.087103 291.743436 
L 545.473271 276.362417 
L 552.859439 278.32284 
L 560.245607 286.531609 
L 567.631776 293.71269 
L 575.017944 288.523878 
L 582.404112 294.200766 
L 589.79028 287.32226 
L 597.176449 290.166419 
L 604.562617 285.117829 
L 611.948785 292.634555 
L 619.334953 303.162765 
L 626.721121 288.856266 
L 634.10729 280.157313 
L 641.493458 279.478997 
L 648.879626 297.571383 
L 656.265794 285.871076 
L 663.651963 291.564738 
L 671.038131 277.323334 
L 678.424299 294.974654 
L 685.810467 292.773624 
L 693.196636 289.594392 
L 700.582804 294.020631 
L 707.968972 291.302427 
L 715.35514 314.204509 
" clip-path="url(#peb904eb182)" style="fill: none; stroke: #f7aa58; stroke-opacity: 0.9; stroke-width: 2.5; stroke-linecap: square"/>
   </g>
   <g id="line2d_28">
    <path d="M 59.512493 -1 
L 65.372336 82.355433 
L 72.758505 128.696124 
L 80.144673 155.489843 
L 87.530841 155.213845 
L 94.917009 174.705323 
L 102.303178 161.161833 
L 109.689346 185.413022 
L 117.075514 180.664477 
L 124.461682 182.947059 
L 131.84785 192.029 
L 139.234019 205.180373 
L 146.620187 209.913478 
L 154.006355 194.185292 
L 161.392523 215.109322 
L 168.778692 218.290976 
L 176.16486 213.077262 
L 183.551028 221.093973 
L 190.937196 228.074438 
L 198.323364 231.410026 
L 205.709533 232.239284 
L 213.095701 244.525992 
L 220.481869 250.637877 
L 227.868037 231.027314 
L 235.254206 227.906981 
L 242.640374 252.704893 
L 250.026542 252.576241 
L 257.41271 243.907593 
L 264.798879 250.285116 
L 272.185047 248.709623 
L 279.571215 262.408593 
L 286.957383 243.336744 
L 294.343551 260.078608 
L 301.72972 271.662559 
L 309.115888 252.406826 
L 316.502056 267.013665 
L 323.888224 280.941449 
L 331.274393 258.156784 
L 338.660561 255.788581 
L 346.046729 275.366553 
L 353.432897 257.410657 
L 360.819065 268.269482 
L 368.205234 278.264485 
L 375.591402 284.620814 
L 382.97757 274.065086 
L 390.363738 284.955006 
L 397.749907 290.688309 
L 405.136075 281.40703 
L 412.522243 280.154824 
L 419.908411 274.945365 
L 427.294579 289.339103 
L 434.680748 280.197074 
L 442.066916 287.137905 
L 449.453084 293.033865 
L 456.839252 280.634203 
L 464.225421 295.79795 
L 471.611589 282.082096 
L 478.997757 297.813485 
L 486.383925 285.512026 
L 493.770093 302.893785 
L 501.156262 286.021252 
L 508.54243 297.546387 
L 515.928598 293.226109 
L 523.314766 295.54285 
L 530.700935 290.730898 
L 538.087103 302.972316 
L 545.473271 296.123371 
L 552.859439 298.874574 
L 560.245607 288.045489 
L 567.631776 305.253735 
L 575.017944 301.294312 
L 582.404112 306.888013 
L 589.79028 309.956907 
L 597.176449 301.263018 
L 604.562617 290.301385 
L 611.948785 300.300738 
L 619.334953 309.547715 
L 626.721121 296.363266 
L 634.10729 299.302366 
L 641.493458 303.6338 
L 648.879626 297.090527 
L 656.265794 295.177874 
L 663.651963 300.97202 
L 671.038131 304.331258 
L 678.424299 301.813167 
L 685.810467 297.625953 
L 693.196636 302.588728 
L 700.582804 299.390813 
L 707.968972 301.565907 
L 715.35514 313.850363 
" clip-path="url(#peb904eb182)" style="fill: none; stroke: #e76254; stroke-opacity: 0.9; stroke-width: 2.5; stroke-linecap: square"/>
   </g>
   <g id="line2d_29">
    <path d="M 62.697533 -1 
L 65.372336 13.309194 
L 72.758505 40.751564 
L 80.144673 113.280328 
L 87.530841 110.316654 
L 94.917009 129.224116 
L 102.303178 121.686142 
L 109.689346 143.433706 
L 117.075514 136.131256 
L 124.461682 137.379586 
L 131.84785 143.932019 
L 139.234019 152.577227 
L 146.620187 153.906553 
L 154.006355 150.004895 
L 161.392523 152.127916 
L 168.778692 166.426608 
L 176.16486 156.662199 
L 183.551028 158.846392 
L 190.937196 154.706389 
L 198.323364 166.245274 
L 205.709533 171.143749 
L 213.095701 169.573914 
L 220.481869 167.53651 
L 227.868037 173.77293 
L 235.254206 164.467546 
L 242.640374 174.790755 
L 250.026542 187.360039 
L 257.41271 177.322883 
L 264.798879 170.404751 
L 272.185047 177.596778 
L 279.571215 192.373438 
L 286.957383 173.078297 
L 294.343551 182.524431 
L 301.72972 194.949695 
L 309.115888 186.95612 
L 316.502056 182.54736 
L 323.888224 198.190616 
L 331.274393 182.395003 
L 338.660561 180.39087 
L 346.046729 190.055985 
L 353.432897 169.860198 
L 360.819065 189.293565 
L 368.205234 199.796359 
L 375.591402 199.054054 
L 382.97757 192.069175 
L 390.363738 187.26571 
L 397.749907 211.37241 
L 405.136075 196.030238 
L 412.522243 194.290836 
L 419.908411 198.072106 
L 427.294579 195.11896 
L 434.680748 189.681137 
L 442.066916 197.708549 
L 449.453084 204.807585 
L 456.839252 189.168588 
L 464.225421 190.017797 
L 471.611589 205.404124 
L 478.997757 206.043376 
L 486.383925 196.890603 
L 493.770093 209.991703 
L 501.156262 208.396399 
L 508.54243 206.25268 
L 515.928598 194.730708 
L 523.314766 199.468588 
L 530.700935 193.515769 
L 538.087103 209.014354 
L 545.473271 198.219739 
L 552.859439 214.719452 
L 560.245607 193.918604 
L 567.631776 204.486669 
L 575.017944 204.257728 
L 582.404112 199.217634 
L 589.79028 209.938364 
L 597.176449 201.593494 
L 604.562617 200.883267 
L 611.948785 206.241209 
L 619.334953 206.511849 
L 626.721121 200.589949 
L 634.10729 197.964451 
L 641.493458 211.755551 
L 648.879626 207.465993 
L 656.265794 208.567275 
L 663.651963 200.58104 
L 671.038131 204.765291 
L 678.424299 207.227018 
L 685.810467 211.307888 
L 693.196636 200.308851 
L 700.582804 203.17495 
L 707.968972 199.448433 
L 715.35514 192.016553 
" clip-path="url(#peb904eb182)" style="fill: none; stroke: #528fad; stroke-opacity: 0.9; stroke-width: 2.5; stroke-linecap: square"/>
   </g>
   <g id="patch_3">
    <path d="M 50.6 315.16 
L 50.6 14.76 
" style="fill: none; stroke: #000000; stroke-width: 0.8; stroke-linejoin: miter; stroke-linecap: square"/>
   </g>
   <g id="patch_4">
    <path d="M 709.2 315.16 
L 709.2 14.76 
" style="fill: none; stroke: #000000; stroke-width: 0.8; stroke-linejoin: miter; stroke-linecap: square"/>
   </g>
   <g id="patch_5">
    <path d="M 50.6 315.16 
L 709.2 315.16 
" style="fill: none; stroke: #000000; stroke-width: 0.8; stroke-linejoin: miter; stroke-linecap: square"/>
   </g>
   <g id="patch_6">
    <path d="M 50.6 14.76 
L 709.2 14.76 
" style="fill: none; stroke: #000000; stroke-width: 0.8; stroke-linejoin: miter; stroke-linecap: square"/>
   </g>
   <g id="axes_2">
    <g id="patch_7">
     <path d="M 379.9 149.94 
L 676.27 149.94 
L 676.27 59.82 
L 379.9 59.82 
z
" style="fill: #ffffff"/>
    </g>
    <g id="matplotlib.axis_3">
     <g id="xtick_8">
      <g id="line2d_30">
       <path d="M 393.371364 149.94 
L 393.371364 59.82 
" clip-path="url(#pa7f0a71dee)" style="fill: none; stroke-dasharray: 2.96,1.28; stroke-dashoffset: 0; stroke: #b0b0b0; stroke-opacity: 0.4; stroke-width: 0.8"/>
      </g>
      <g id="line2d_31">
       <g>
        <use xlink:href="#m1800197886" x="393.371364" y="149.94" style="stroke: #000000; stroke-width: 0.8"/>
       </g>
      </g>
      <g id="text_16">
       <!-- 0 -->
       <g transform="translate(390.190114 164.538437) scale(0.1 -0.1)">
        <use xlink:href="#DejaVuSans-30"/>
       </g>
      </g>
     </g>
     <g id="xtick_9">
      <g id="line2d_32">
       <path d="M 460.728182 149.94 
L 460.728182 59.82 
" clip-path="url(#pa7f0a71dee)" style="fill: none; stroke-dasharray: 2.96,1.28; stroke-dashoffset: 0; stroke: #b0b0b0; stroke-opacity: 0.4; stroke-width: 0.8"/>
      </g>
      <g id="line2d_33">
       <g>
        <use xlink:href="#m1800197886" x="460.728182" y="149.94" style="stroke: #000000; stroke-width: 0.8"/>
       </g>
      </g>
      <g id="text_17">
       <!-- 25 -->
       <g transform="translate(454.365682 164.538437) scale(0.1 -0.1)">
        <use xlink:href="#DejaVuSans-32"/>
        <use xlink:href="#DejaVuSans-35" x="63.623047"/>
       </g>
      </g>
     </g>
     <g id="xtick_10">
      <g id="line2d_34">
       <path d="M 528.085 149.94 
L 528.085 59.82 
" clip-path="url(#pa7f0a71dee)" style="fill: none; stroke-dasharray: 2.96,1.28; stroke-dashoffset: 0; stroke: #b0b0b0; stroke-opacity: 0.4; stroke-width: 0.8"/>
      </g>
      <g id="line2d_35">
       <g>
        <use xlink:href="#m1800197886" x="528.085" y="149.94" style="stroke: #000000; stroke-width: 0.8"/>
       </g>
      </g>
      <g id="text_18">
       <!-- 50 -->
       <g transform="translate(521.7225 164.538437) scale(0.1 -0.1)">
        <use xlink:href="#DejaVuSans-35"/>
        <use xlink:href="#DejaVuSans-30" x="63.623047"/>
       </g>
      </g>
     </g>
     <g id="xtick_11">
      <g id="line2d_36">
       <path d="M 595.441818 149.94 
L 595.441818 59.82 
" clip-path="url(#pa7f0a71dee)" style="fill: none; stroke-dasharray: 2.96,1.28; stroke-dashoffset: 0; stroke: #b0b0b0; stroke-opacity: 0.4; stroke-width: 0.8"/>
      </g>
      <g id="line2d_37">
       <g>
        <use xlink:href="#m1800197886" x="595.441818" y="149.94" style="stroke: #000000; stroke-width: 0.8"/>
       </g>
      </g>
      <g id="text_19">
       <!-- 75 -->
       <g transform="translate(589.079318 164.538437) scale(0.1 -0.1)">
        <defs>
         <path id="DejaVuSans-37" d="M 525 4666 
L 3525 4666 
L 3525 4397 
L 1831 0 
L 1172 0 
L 2766 4134 
L 525 4134 
L 525 4666 
z
" transform="scale(0.015625)"/>
        </defs>
        <use xlink:href="#DejaVuSans-37"/>
        <use xlink:href="#DejaVuSans-35" x="63.623047"/>
       </g>
      </g>
     </g>
     <g id="xtick_12">
      <g id="line2d_38">
       <path d="M 662.798636 149.94 
L 662.798636 59.82 
" clip-path="url(#pa7f0a71dee)" style="fill: none; stroke-dasharray: 2.96,1.28; stroke-dashoffset: 0; stroke: #b0b0b0; stroke-opacity: 0.4; stroke-width: 0.8"/>
      </g>
      <g id="line2d_39">
       <g>
        <use xlink:href="#m1800197886" x="662.798636" y="149.94" style="stroke: #000000; stroke-width: 0.8"/>
       </g>
      </g>
      <g id="text_20">
       <!-- 100 -->
       <g transform="translate(653.254886 164.538437) scale(0.1 -0.1)">
        <use xlink:href="#DejaVuSans-31"/>
        <use xlink:href="#DejaVuSans-30" x="63.623047"/>
        <use xlink:href="#DejaVuSans-30" x="127.246094"/>
       </g>
      </g>
     </g>
     <g id="text_21">
      <!-- The First 100 Steps -->
      <g transform="translate(479.962344 178.216562) scale(0.1 -0.1)">
       <defs>
        <path id="DejaVuSans-68" d="M 3513 2113 
L 3513 0 
L 2938 0 
L 2938 2094 
Q 2938 2591 2744 2837 
Q 2550 3084 2163 3084 
Q 1697 3084 1428 2787 
Q 1159 2491 1159 1978 
L 1159 0 
L 581 0 
L 581 4863 
L 1159 4863 
L 1159 2956 
Q 1366 3272 1645 3428 
Q 1925 3584 2291 3584 
Q 2894 3584 3203 3211 
Q 3513 2838 3513 2113 
z
" transform="scale(0.015625)"/>
        <path id="DejaVuSans-46" d="M 628 4666 
L 3309 4666 
L 3309 4134 
L 1259 4134 
L 1259 2759 
L 3109 2759 
L 3109 2228 
L 1259 2228 
L 1259 0 
L 628 0 
L 628 4666 
z
" transform="scale(0.015625)"/>
       </defs>
       <use xlink:href="#DejaVuSans-54"/>
       <use xlink:href="#DejaVuSans-68" x="61.083984"/>
       <use xlink:href="#DejaVuSans-65" x="124.462891"/>
       <use xlink:href="#DejaVuSans-20" x="185.986328"/>
       <use xlink:href="#DejaVuSans-46" x="217.773438"/>
       <use xlink:href="#DejaVuSans-69" x="268.042969"/>
       <use xlink:href="#DejaVuSans-72" x="295.826172"/>
       <use xlink:href="#DejaVuSans-73" x="336.939453"/>
       <use xlink:href="#DejaVuSans-74" x="389.039062"/>
       <use xlink:href="#DejaVuSans-20" x="428.248047"/>
       <use xlink:href="#DejaVuSans-31" x="460.035156"/>
       <use xlink:href="#DejaVuSans-30" x="523.658203"/>
       <use xlink:href="#DejaVuSans-30" x="587.28125"/>
       <use xlink:href="#DejaVuSans-20" x="650.904297"/>
       <use xlink:href="#DejaVuSans-53" x="682.691406"/>
       <use xlink:href="#DejaVuSans-74" x="746.167969"/>
       <use xlink:href="#DejaVuSans-65" x="785.376953"/>
       <use xlink:href="#DejaVuSans-70" x="846.900391"/>
       <use xlink:href="#DejaVuSans-73" x="910.376953"/>
      </g>
     </g>
    </g>
    <g id="matplotlib.axis_4">
     <g id="ytick_7">
      <g id="line2d_40">
       <path d="M 379.9 131.916 
L 676.27 131.916 
" clip-path="url(#pa7f0a71dee)" style="fill: none; stroke-dasharray: 2.96,1.28; stroke-dashoffset: 0; stroke: #b0b0b0; stroke-opacity: 0.4; stroke-width: 0.8"/>
      </g>
      <g id="line2d_41">
       <g>
        <use xlink:href="#mf691598ba9" x="379.9" y="131.916" style="stroke: #000000; stroke-width: 0.8"/>
       </g>
      </g>
      <g id="text_22">
       <!-- 0.6 -->
       <g transform="translate(356.996875 135.715219) scale(0.1 -0.1)">
        <use xlink:href="#DejaVuSans-30"/>
        <use xlink:href="#DejaVuSans-2e" x="63.623047"/>
        <use xlink:href="#DejaVuSans-36" x="95.410156"/>
       </g>
      </g>
     </g>
     <g id="ytick_8">
      <g id="line2d_42">
       <path d="M 379.9 95.868 
L 676.27 95.868 
" clip-path="url(#pa7f0a71dee)" style="fill: none; stroke-dasharray: 2.96,1.28; stroke-dashoffset: 0; stroke: #b0b0b0; stroke-opacity: 0.4; stroke-width: 0.8"/>
      </g>
      <g id="line2d_43">
       <g>
        <use xlink:href="#mf691598ba9" x="379.9" y="95.868" style="stroke: #000000; stroke-width: 0.8"/>
       </g>
      </g>
      <g id="text_23">
       <!-- 0.7 -->
       <g transform="translate(356.996875 99.667219) scale(0.1 -0.1)">
        <use xlink:href="#DejaVuSans-30"/>
        <use xlink:href="#DejaVuSans-2e" x="63.623047"/>
        <use xlink:href="#DejaVuSans-37" x="95.410156"/>
       </g>
      </g>
     </g>
     <g id="ytick_9">
      <g id="line2d_44">
       <path d="M 379.9 59.82 
L 676.27 59.82 
" clip-path="url(#pa7f0a71dee)" style="fill: none; stroke-dasharray: 2.96,1.28; stroke-dashoffset: 0; stroke: #b0b0b0; stroke-opacity: 0.4; stroke-width: 0.8"/>
      </g>
      <g id="line2d_45">
       <g>
        <use xlink:href="#mf691598ba9" x="379.9" y="59.82" style="stroke: #000000; stroke-width: 0.8"/>
       </g>
      </g>
      <g id="text_24">
       <!-- 0.8 -->
       <g transform="translate(356.996875 63.619219) scale(0.1 -0.1)">
        <use xlink:href="#DejaVuSans-30"/>
        <use xlink:href="#DejaVuSans-2e" x="63.623047"/>
        <use xlink:href="#DejaVuSans-38" x="95.410156"/>
       </g>
      </g>
     </g>
     <g id="text_25">
      <!-- Training Loss -->
      <g transform="translate(350.917188 137.162031) rotate(-90) scale(0.1 -0.1)">
       <use xlink:href="#DejaVuSans-54"/>
       <use xlink:href="#DejaVuSans-72" x="46.333984"/>
       <use xlink:href="#DejaVuSans-61" x="87.447266"/>
       <use xlink:href="#DejaVuSans-69" x="148.726562"/>
       <use xlink:href="#DejaVuSans-6e" x="176.509766"/>
       <use xlink:href="#DejaVuSans-69" x="239.888672"/>
       <use xlink:href="#DejaVuSans-6e" x="267.671875"/>
       <use xlink:href="#DejaVuSans-67" x="331.050781"/>
       <use xlink:href="#DejaVuSans-20" x="394.527344"/>
       <use xlink:href="#DejaVuSans-4c" x="426.314453"/>
       <use xlink:href="#DejaVuSans-6f" x="480.277344"/>
       <use xlink:href="#DejaVuSans-73" x="541.458984"/>
       <use xlink:href="#DejaVuSans-73" x="593.558594"/>
      </g>
     </g>
    </g>
    <g id="line2d_46">
     <path d="M 398.759909 87.577329 
L 404.148455 81.454222 
L 409.537 85.144169 
L 414.925545 82.154159 
L 420.314091 84.538126 
L 425.702636 89.292944 
L 431.091182 90.758577 
L 436.479727 84.418351 
L 441.868273 88.268607 
L 447.256818 83.187767 
L 452.645364 88.848844 
L 458.033909 91.480183 
L 463.422455 88.673613 
L 468.811 91.88679 
L 474.199545 94.758528 
L 479.588091 93.636267 
L 484.976636 91.92597 
L 490.365182 93.368559 
L 495.753727 94.819065 
L 501.142273 91.672163 
L 506.530818 92.86954 
L 511.919364 96.544683 
L 517.307909 98.82167 
L 522.696455 102.710988 
L 528.085 104.34864 
L 533.473545 104.504609 
L 538.862091 101.557991 
L 544.250636 105.705262 
L 549.639182 106.212908 
L 555.027727 107.798692 
L 560.416273 116.165623 
L 565.804818 106.516369 
L 571.193364 112.806586 
L 576.581909 126.557979 
L 581.970455 112.355116 
L 587.359 111.598477 
L 592.747545 109.917702 
L 598.136091 110.874926 
L 603.524636 106.068198 
L 608.913182 123.439685 
L 614.301727 113.495093 
L 619.690273 104.784908 
L 625.078818 138.538364 
L 630.467364 134.200606 
L 635.855909 137.7685 
L 641.244455 122.369153 
L 646.633 134.74682 
L 652.021545 141.956585 
L 657.410091 137.011893 
L 662.798636 131.393692 
" clip-path="url(#pa7f0a71dee)" style="fill: none; stroke: #f7aa58; stroke-opacity: 0.9; stroke-width: 1.5; stroke-linecap: square"/>
    </g>
    <g id="line2d_47">
     <path d="M 398.759909 83.085095 
L 404.148455 83.91901 
L 409.537 93.062906 
L 414.925545 88.660689 
L 420.314091 98.942455 
L 425.702636 101.605089 
L 431.091182 85.941116 
L 436.479727 91.745045 
L 441.868273 90.649695 
L 447.256818 86.553733 
L 452.645364 90.272944 
L 458.033909 93.627812 
L 463.422455 88.346592 
L 468.811 89.552692 
L 474.199545 88.183038 
L 479.588091 96.276265 
L 484.976636 94.743359 
L 490.365182 94.789243 
L 495.753727 94.45367 
L 501.142273 98.674886 
L 506.530818 97.807464 
L 511.919364 99.264105 
L 517.307909 98.34375 
L 522.696455 93.658484 
L 528.085 98.743374 
L 533.473545 102.633422 
L 538.862091 98.519788 
L 544.250636 95.296706 
L 549.639182 104.919713 
L 555.027727 103.295909 
L 560.416273 101.824281 
L 565.804818 103.663292 
L 571.193364 113.476034 
L 576.581909 119.678211 
L 581.970455 113.156759 
L 587.359 111.038351 
L 592.747545 104.300521 
L 598.136091 113.190202 
L 603.524636 123.407187 
L 608.913182 116.65696 
L 614.301727 111.462179 
L 619.690273 119.647894 
L 625.078818 112.403761 
L 630.467364 111.291245 
L 635.855909 106.752643 
L 641.244455 135.930349 
L 646.633 134.001933 
L 652.021545 124.319645 
L 657.410091 120.205108 
L 662.798636 101.774659 
" clip-path="url(#pa7f0a71dee)" style="fill: none; stroke: #e76254; stroke-opacity: 0.9; stroke-width: 1.5; stroke-linecap: square"/>
    </g>
    <g id="line2d_48">
     <path d="M 398.759909 79.457523 
L 404.148455 88.614568 
L 409.537 85.973056 
L 414.925545 88.772009 
L 420.314091 95.515941 
L 425.702636 94.32674 
L 431.091182 91.963807 
L 436.479727 87.948848 
L 441.868273 89.738387 
L 447.256818 93.742775 
L 452.645364 91.130999 
L 458.033909 95.037484 
L 463.422455 86.061568 
L 468.811 86.992419 
L 474.199545 89.893002 
L 479.588091 93.042386 
L 484.976636 96.939794 
L 490.365182 92.000527 
L 495.753727 93.374349 
L 501.142273 94.653868 
L 506.530818 100.266225 
L 511.919364 97.574305 
L 517.307909 99.901463 
L 522.696455 94.686076 
L 528.085 99.007408 
L 533.473545 97.528077 
L 538.862091 100.416597 
L 544.250636 96.554018 
L 549.639182 105.53305 
L 555.027727 105.809557 
L 560.416273 94.805261 
L 565.804818 103.702687 
L 571.193364 114.071258 
L 576.581909 110.575805 
L 581.970455 112.158012 
L 587.359 109.303806 
L 592.747545 104.396404 
L 598.136091 114.828488 
L 603.524636 115.318666 
L 608.913182 113.455021 
L 614.301727 106.789073 
L 619.690273 115.044769 
L 625.078818 110.211967 
L 630.467364 105.297861 
L 635.855909 105.009805 
L 641.244455 130.206145 
L 646.633 127.550999 
L 652.021545 122.407731 
L 657.410091 114.834032 
L 662.798636 98.243517 
" clip-path="url(#pa7f0a71dee)" style="fill: none; stroke: #528fad; stroke-opacity: 0.9; stroke-width: 1.5; stroke-linecap: square"/>
    </g>
    <g id="patch_8">
     <path d="M 379.9 149.94 
L 379.9 59.82 
" style="fill: none; stroke: #000000; stroke-width: 0.8; stroke-linejoin: miter; stroke-linecap: square"/>
    </g>
    <g id="patch_9">
     <path d="M 676.27 149.94 
L 676.27 59.82 
" style="fill: none; stroke: #000000; stroke-width: 0.8; stroke-linejoin: miter; stroke-linecap: square"/>
    </g>
    <g id="patch_10">
     <path d="M 379.9 149.94 
L 676.27 149.94 
" style="fill: none; stroke: #000000; stroke-width: 0.8; stroke-linejoin: miter; stroke-linecap: square"/>
    </g>
    <g id="patch_11">
     <path d="M 379.9 59.82 
L 676.27 59.82 
" style="fill: none; stroke: #000000; stroke-width: 0.8; stroke-linejoin: miter; stroke-linecap: square"/>
    </g>
   </g>
   <g id="legend_1">
    <g id="patch_12">
     <path d="M 586.045313 93.22875 
L 698.7 93.22875 
Q 701.7 93.22875 701.7 90.22875 
L 701.7 25.26 
Q 701.7 22.26 698.7 22.26 
L 586.045313 22.26 
Q 583.045313 22.26 583.045313 25.26 
L 583.045313 90.22875 
Q 583.045313 93.22875 586.045313 93.22875 
z
" style="fill: #ffffff; opacity: 0.8; stroke: #cccccc; stroke-linejoin: miter"/>
    </g>
    <g id="line2d_49">
     <path d="M 589.045313 34.407656 
L 604.045313 34.407656 
L 619.045313 34.407656 
" style="fill: none; stroke: #f7aa58; stroke-opacity: 0.9; stroke-width: 2.5; stroke-linecap: square"/>
    </g>
    <g id="text_26">
     <!-- FiLoRA -->
     <g transform="translate(631.045313 39.657656) scale(0.15 -0.15)">
      <defs>
       <path id="DejaVuSans-52" d="M 2841 2188 
Q 3044 2119 3236 1894 
Q 3428 1669 3622 1275 
L 4263 0 
L 3584 0 
L 2988 1197 
Q 2756 1666 2539 1819 
Q 2322 1972 1947 1972 
L 1259 1972 
L 1259 0 
L 628 0 
L 628 4666 
L 2053 4666 
Q 2853 4666 3247 4331 
Q 3641 3997 3641 3322 
Q 3641 2881 3436 2590 
Q 3231 2300 2841 2188 
z
M 1259 4147 
L 1259 2491 
L 2053 2491 
Q 2509 2491 2742 2702 
Q 2975 2913 2975 3322 
Q 2975 3731 2742 3939 
Q 2509 4147 2053 4147 
L 1259 4147 
z
" transform="scale(0.015625)"/>
       <path id="DejaVuSans-41" d="M 2188 4044 
L 1331 1722 
L 3047 1722 
L 2188 4044 
z
M 1831 4666 
L 2547 4666 
L 4325 0 
L 3669 0 
L 3244 1197 
L 1141 1197 
L 716 0 
L 50 0 
L 1831 4666 
z
" transform="scale(0.015625)"/>
      </defs>
      <use xlink:href="#DejaVuSans-46"/>
      <use xlink:href="#DejaVuSans-69" x="50.269531"/>
      <use xlink:href="#DejaVuSans-4c" x="78.052734"/>
      <use xlink:href="#DejaVuSans-6f" x="132.015625"/>
      <use xlink:href="#DejaVuSans-52" x="193.197266"/>
      <use xlink:href="#DejaVuSans-41" x="258.679688"/>
     </g>
    </g>
    <g id="line2d_50">
     <path d="M 589.045313 56.424844 
L 604.045313 56.424844 
L 619.045313 56.424844 
" style="fill: none; stroke: #e76254; stroke-opacity: 0.9; stroke-width: 2.5; stroke-linecap: square"/>
    </g>
    <g id="text_27">
     <!-- LoRA_XS -->
     <g transform="translate(631.045313 61.674844) scale(0.15 -0.15)">
      <defs>
       <path id="DejaVuSans-5f" d="M 3263 -1063 
L 3263 -1509 
L -63 -1509 
L -63 -1063 
L 3263 -1063 
z
" transform="scale(0.015625)"/>
       <path id="DejaVuSans-58" d="M 403 4666 
L 1081 4666 
L 2241 2931 
L 3406 4666 
L 4084 4666 
L 2584 2425 
L 4184 0 
L 3506 0 
L 2194 1984 
L 872 0 
L 191 0 
L 1856 2491 
L 403 4666 
z
" transform="scale(0.015625)"/>
      </defs>
      <use xlink:href="#DejaVuSans-4c"/>
      <use xlink:href="#DejaVuSans-6f" x="53.962891"/>
      <use xlink:href="#DejaVuSans-52" x="115.144531"/>
      <use xlink:href="#DejaVuSans-41" x="180.626953"/>
      <use xlink:href="#DejaVuSans-5f" x="249.035156"/>
      <use xlink:href="#DejaVuSans-58" x="299.035156"/>
      <use xlink:href="#DejaVuSans-53" x="367.541016"/>
     </g>
    </g>
    <g id="line2d_51">
     <path d="M 589.045313 78.859219 
L 604.045313 78.859219 
L 619.045313 78.859219 
" style="fill: none; stroke: #528fad; stroke-opacity: 0.9; stroke-width: 2.5; stroke-linecap: square"/>
    </g>
    <g id="text_28">
     <!-- Random -->
     <g transform="translate(631.045313 84.109219) scale(0.15 -0.15)">
      <defs>
       <path id="DejaVuSans-64" d="M 2906 2969 
L 2906 4863 
L 3481 4863 
L 3481 0 
L 2906 0 
L 2906 525 
Q 2725 213 2448 61 
Q 2172 -91 1784 -91 
Q 1150 -91 751 415 
Q 353 922 353 1747 
Q 353 2572 751 3078 
Q 1150 3584 1784 3584 
Q 2172 3584 2448 3432 
Q 2725 3281 2906 2969 
z
M 947 1747 
Q 947 1113 1208 752 
Q 1469 391 1925 391 
Q 2381 391 2643 752 
Q 2906 1113 2906 1747 
Q 2906 2381 2643 2742 
Q 2381 3103 1925 3103 
Q 1469 3103 1208 2742 
Q 947 2381 947 1747 
z
" transform="scale(0.015625)"/>
       <path id="DejaVuSans-6d" d="M 3328 2828 
Q 3544 3216 3844 3400 
Q 4144 3584 4550 3584 
Q 5097 3584 5394 3201 
Q 5691 2819 5691 2113 
L 5691 0 
L 5113 0 
L 5113 2094 
Q 5113 2597 4934 2840 
Q 4756 3084 4391 3084 
Q 3944 3084 3684 2787 
Q 3425 2491 3425 1978 
L 3425 0 
L 2847 0 
L 2847 2094 
Q 2847 2600 2669 2842 
Q 2491 3084 2119 3084 
Q 1678 3084 1418 2786 
Q 1159 2488 1159 1978 
L 1159 0 
L 581 0 
L 581 3500 
L 1159 3500 
L 1159 2956 
Q 1356 3278 1631 3431 
Q 1906 3584 2284 3584 
Q 2666 3584 2933 3390 
Q 3200 3197 3328 2828 
z
" transform="scale(0.015625)"/>
      </defs>
      <use xlink:href="#DejaVuSans-52"/>
      <use xlink:href="#DejaVuSans-61" x="67.232422"/>
      <use xlink:href="#DejaVuSans-6e" x="128.511719"/>
      <use xlink:href="#DejaVuSans-64" x="191.890625"/>
      <use xlink:href="#DejaVuSans-6f" x="255.367188"/>
      <use xlink:href="#DejaVuSans-6d" x="316.548828"/>
     </g>
    </g>
   </g>
  </g>
 </g>
 <defs>
  <clipPath id="peb904eb182">
   <rect x="50.6" y="14.76" width="658.6" height="300.4"/>
  </clipPath>
  <clipPath id="pa7f0a71dee">
   <rect x="379.9" y="59.82" width="296.37" height="90.12"/>
  </clipPath>
 </defs>
</svg>
