<?xml version="1.0" encoding="utf-8" standalone="no"?>
<!DOCTYPE svg PUBLIC "-//W3C//DTD SVG 1.1//EN"
  "http://www.w3.org/Graphics/SVG/1.1/DTD/svg11.dtd">
<svg xmlns:xlink="http://www.w3.org/1999/xlink" width="720pt" height="360pt" viewBox="0 0 720 360" xmlns="http://www.w3.org/2000/svg" version="1.1">
 <metadata>
  <rdf:RDF xmlns:dc="http://purl.org/dc/elements/1.1/" xmlns:cc="http://creativecommons.org/ns#" xmlns:rdf="http://www.w3.org/1999/02/22-rdf-syntax-ns#">
   <cc:Work>
    <dc:type rdf:resource="http://purl.org/dc/dcmitype/StillImage"/>
    <dc:date>2025-10-14T08:46:47.381872</dc:date>
    <dc:format>image/svg+xml</dc:format>
    <dc:creator>
     <cc:Agent>
      <dc:title>Matplotlib v3.9.4, https://matplotlib.org/</dc:title>
     </cc:Agent>
    </dc:creator>
   </cc:Work>
  </rdf:RDF>
 </metadata>
 <defs>
  <style type="text/css">*{stroke-linejoin: round; stroke-linecap: butt}</style>
 </defs>
 <g id="figure_1">
  <g id="patch_1">
   <path d="M 0 360 
L 720 360 
L 720 0 
L 0 0 
z
" style="fill: #ffffff"/>
  </g>
  <g id="axes_1">
   <g id="patch_2">
    <path d="M 50.6 332.12 
L 709.2 332.12 
L 709.2 14.76 
L 50.6 14.76 
z
" style="fill: #ffffff"/>
   </g>
   <g id="matplotlib.axis_1">
    <g id="xtick_1">
     <g id="line2d_1">
      <path d="M 50.6 332.12 
L 50.6 14.76 
" clip-path="url(#p6c34831623)" style="fill: none; stroke-dasharray: 2.96,1.28; stroke-dashoffset: 0; stroke: #b0b0b0; stroke-opacity: 0.6; stroke-width: 0.8"/>
     </g>
     <g id="line2d_2">
      <defs>
       <path id="m186e392472" d="M 0 0 
L 0 3.5 
" style="stroke: #000000; stroke-width: 0.8"/>
      </defs>
      <g>
       <use xlink:href="#m186e392472" x="50.6" y="332.12" style="stroke: #000000; stroke-width: 0.8"/>
      </g>
     </g>
     <g id="text_1">
      <!-- 0 -->
      <g transform="translate(47.41875 346.718437) scale(0.1 -0.1)">
       <defs>
        <path id="DejaVuSans-30" d="M 2034 4250 
Q 1547 4250 1301 3770 
Q 1056 3291 1056 2328 
Q 1056 1369 1301 889 
Q 1547 409 2034 409 
Q 2525 409 2770 889 
Q 3016 1369 3016 2328 
Q 3016 3291 2770 3770 
Q 2525 4250 2034 4250 
z
M 2034 4750 
Q 2819 4750 3233 4129 
Q 3647 3509 3647 2328 
Q 3647 1150 3233 529 
Q 2819 -91 2034 -91 
Q 1250 -91 836 529 
Q 422 1150 422 2328 
Q 422 3509 836 4129 
Q 1250 4750 2034 4750 
z
" transform="scale(0.015625)"/>
       </defs>
       <use xlink:href="#DejaVuSans-30"/>
      </g>
     </g>
    </g>
    <g id="xtick_2">
     <g id="line2d_3">
      <path d="M 149.082243 332.12 
L 149.082243 14.76 
" clip-path="url(#p6c34831623)" style="fill: none; stroke-dasharray: 2.96,1.28; stroke-dashoffset: 0; stroke: #b0b0b0; stroke-opacity: 0.6; stroke-width: 0.8"/>
     </g>
     <g id="line2d_4">
      <g>
       <use xlink:href="#m186e392472" x="149.082243" y="332.12" style="stroke: #000000; stroke-width: 0.8"/>
      </g>
     </g>
     <g id="text_2">
      <!-- 2k -->
      <g transform="translate(143.00568 346.718437) scale(0.1 -0.1)">
       <defs>
        <path id="DejaVuSans-32" d="M 1228 531 
L 3431 531 
L 3431 0 
L 469 0 
L 469 531 
Q 828 903 1448 1529 
Q 2069 2156 2228 2338 
Q 2531 2678 2651 2914 
Q 2772 3150 2772 3378 
Q 2772 3750 2511 3984 
Q 2250 4219 1831 4219 
Q 1534 4219 1204 4116 
Q 875 4013 500 3803 
L 500 4441 
Q 881 4594 1212 4672 
Q 1544 4750 1819 4750 
Q 2544 4750 2975 4387 
Q 3406 4025 3406 3419 
Q 3406 3131 3298 2873 
Q 3191 2616 2906 2266 
Q 2828 2175 2409 1742 
Q 1991 1309 1228 531 
z
" transform="scale(0.015625)"/>
        <path id="DejaVuSans-6b" d="M 581 4863 
L 1159 4863 
L 1159 1991 
L 2875 3500 
L 3609 3500 
L 1753 1863 
L 3688 0 
L 2938 0 
L 1159 1709 
L 1159 0 
L 581 0 
L 581 4863 
z
" transform="scale(0.015625)"/>
       </defs>
       <use xlink:href="#DejaVuSans-32"/>
       <use xlink:href="#DejaVuSans-6b" x="63.623047"/>
      </g>
     </g>
    </g>
    <g id="xtick_3">
     <g id="line2d_5">
      <path d="M 247.564486 332.12 
L 247.564486 14.76 
" clip-path="url(#p6c34831623)" style="fill: none; stroke-dasharray: 2.96,1.28; stroke-dashoffset: 0; stroke: #b0b0b0; stroke-opacity: 0.6; stroke-width: 0.8"/>
     </g>
     <g id="line2d_6">
      <g>
       <use xlink:href="#m186e392472" x="247.564486" y="332.12" style="stroke: #000000; stroke-width: 0.8"/>
      </g>
     </g>
     <g id="text_3">
      <!-- 4k -->
      <g transform="translate(241.487923 346.718437) scale(0.1 -0.1)">
       <defs>
        <path id="DejaVuSans-34" d="M 2419 4116 
L 825 1625 
L 2419 1625 
L 2419 4116 
z
M 2253 4666 
L 3047 4666 
L 3047 1625 
L 3713 1625 
L 3713 1100 
L 3047 1100 
L 3047 0 
L 2419 0 
L 2419 1100 
L 313 1100 
L 313 1709 
L 2253 4666 
z
" transform="scale(0.015625)"/>
       </defs>
       <use xlink:href="#DejaVuSans-34"/>
       <use xlink:href="#DejaVuSans-6b" x="63.623047"/>
      </g>
     </g>
    </g>
    <g id="xtick_4">
     <g id="line2d_7">
      <path d="M 346.046729 332.12 
L 346.046729 14.76 
" clip-path="url(#p6c34831623)" style="fill: none; stroke-dasharray: 2.96,1.28; stroke-dashoffset: 0; stroke: #b0b0b0; stroke-opacity: 0.6; stroke-width: 0.8"/>
     </g>
     <g id="line2d_8">
      <g>
       <use xlink:href="#m186e392472" x="346.046729" y="332.12" style="stroke: #000000; stroke-width: 0.8"/>
      </g>
     </g>
     <g id="text_4">
      <!-- 6k -->
      <g transform="translate(339.970166 346.718437) scale(0.1 -0.1)">
       <defs>
        <path id="DejaVuSans-36" d="M 2113 2584 
Q 1688 2584 1439 2293 
Q 1191 2003 1191 1497 
Q 1191 994 1439 701 
Q 1688 409 2113 409 
Q 2538 409 2786 701 
Q 3034 994 3034 1497 
Q 3034 2003 2786 2293 
Q 2538 2584 2113 2584 
z
M 3366 4563 
L 3366 3988 
Q 3128 4100 2886 4159 
Q 2644 4219 2406 4219 
Q 1781 4219 1451 3797 
Q 1122 3375 1075 2522 
Q 1259 2794 1537 2939 
Q 1816 3084 2150 3084 
Q 2853 3084 3261 2657 
Q 3669 2231 3669 1497 
Q 3669 778 3244 343 
Q 2819 -91 2113 -91 
Q 1303 -91 875 529 
Q 447 1150 447 2328 
Q 447 3434 972 4092 
Q 1497 4750 2381 4750 
Q 2619 4750 2861 4703 
Q 3103 4656 3366 4563 
z
" transform="scale(0.015625)"/>
       </defs>
       <use xlink:href="#DejaVuSans-36"/>
       <use xlink:href="#DejaVuSans-6b" x="63.623047"/>
      </g>
     </g>
    </g>
    <g id="xtick_5">
     <g id="line2d_9">
      <path d="M 444.528972 332.12 
L 444.528972 14.76 
" clip-path="url(#p6c34831623)" style="fill: none; stroke-dasharray: 2.96,1.28; stroke-dashoffset: 0; stroke: #b0b0b0; stroke-opacity: 0.6; stroke-width: 0.8"/>
     </g>
     <g id="line2d_10">
      <g>
       <use xlink:href="#m186e392472" x="444.528972" y="332.12" style="stroke: #000000; stroke-width: 0.8"/>
      </g>
     </g>
     <g id="text_5">
      <!-- 8k -->
      <g transform="translate(438.452409 346.718437) scale(0.1 -0.1)">
       <defs>
        <path id="DejaVuSans-38" d="M 2034 2216 
Q 1584 2216 1326 1975 
Q 1069 1734 1069 1313 
Q 1069 891 1326 650 
Q 1584 409 2034 409 
Q 2484 409 2743 651 
Q 3003 894 3003 1313 
Q 3003 1734 2745 1975 
Q 2488 2216 2034 2216 
z
M 1403 2484 
Q 997 2584 770 2862 
Q 544 3141 544 3541 
Q 544 4100 942 4425 
Q 1341 4750 2034 4750 
Q 2731 4750 3128 4425 
Q 3525 4100 3525 3541 
Q 3525 3141 3298 2862 
Q 3072 2584 2669 2484 
Q 3125 2378 3379 2068 
Q 3634 1759 3634 1313 
Q 3634 634 3220 271 
Q 2806 -91 2034 -91 
Q 1263 -91 848 271 
Q 434 634 434 1313 
Q 434 1759 690 2068 
Q 947 2378 1403 2484 
z
M 1172 3481 
Q 1172 3119 1398 2916 
Q 1625 2713 2034 2713 
Q 2441 2713 2670 2916 
Q 2900 3119 2900 3481 
Q 2900 3844 2670 4047 
Q 2441 4250 2034 4250 
Q 1625 4250 1398 4047 
Q 1172 3844 1172 3481 
z
" transform="scale(0.015625)"/>
       </defs>
       <use xlink:href="#DejaVuSans-38"/>
       <use xlink:href="#DejaVuSans-6b" x="63.623047"/>
      </g>
     </g>
    </g>
    <g id="xtick_6">
     <g id="line2d_11">
      <path d="M 543.011215 332.12 
L 543.011215 14.76 
" clip-path="url(#p6c34831623)" style="fill: none; stroke-dasharray: 2.96,1.28; stroke-dashoffset: 0; stroke: #b0b0b0; stroke-opacity: 0.6; stroke-width: 0.8"/>
     </g>
     <g id="line2d_12">
      <g>
       <use xlink:href="#m186e392472" x="543.011215" y="332.12" style="stroke: #000000; stroke-width: 0.8"/>
      </g>
     </g>
     <g id="text_6">
      <!-- 10k -->
      <g transform="translate(533.753402 346.718437) scale(0.1 -0.1)">
       <defs>
        <path id="DejaVuSans-31" d="M 794 531 
L 1825 531 
L 1825 4091 
L 703 3866 
L 703 4441 
L 1819 4666 
L 2450 4666 
L 2450 531 
L 3481 531 
L 3481 0 
L 794 0 
L 794 531 
z
" transform="scale(0.015625)"/>
       </defs>
       <use xlink:href="#DejaVuSans-31"/>
       <use xlink:href="#DejaVuSans-30" x="63.623047"/>
       <use xlink:href="#DejaVuSans-6b" x="127.246094"/>
      </g>
     </g>
    </g>
    <g id="xtick_7">
     <g id="line2d_13">
      <path d="M 641.493458 332.12 
L 641.493458 14.76 
" clip-path="url(#p6c34831623)" style="fill: none; stroke-dasharray: 2.96,1.28; stroke-dashoffset: 0; stroke: #b0b0b0; stroke-opacity: 0.6; stroke-width: 0.8"/>
     </g>
     <g id="line2d_14">
      <g>
       <use xlink:href="#m186e392472" x="641.493458" y="332.12" style="stroke: #000000; stroke-width: 0.8"/>
      </g>
     </g>
     <g id="text_7">
      <!-- 12k -->
      <g transform="translate(632.235645 346.718437) scale(0.1 -0.1)">
       <use xlink:href="#DejaVuSans-31"/>
       <use xlink:href="#DejaVuSans-32" x="63.623047"/>
       <use xlink:href="#DejaVuSans-6b" x="127.246094"/>
      </g>
     </g>
    </g>
   </g>
   <g id="matplotlib.axis_2">
    <g id="ytick_1">
     <g id="line2d_15">
      <path d="M 50.6 332.12 
L 709.2 332.12 
" clip-path="url(#p6c34831623)" style="fill: none; stroke-dasharray: 2.96,1.28; stroke-dashoffset: 0; stroke: #b0b0b0; stroke-opacity: 0.6; stroke-width: 0.8"/>
     </g>
     <g id="line2d_16">
      <defs>
       <path id="m904777dbe5" d="M 0 0 
L -3.5 0 
" style="stroke: #000000; stroke-width: 0.8"/>
      </defs>
      <g>
       <use xlink:href="#m904777dbe5" x="50.6" y="332.12" style="stroke: #000000; stroke-width: 0.8"/>
      </g>
     </g>
     <g id="text_8">
      <!-- 0.1 -->
      <g transform="translate(27.696875 335.919219) scale(0.1 -0.1)">
       <defs>
        <path id="DejaVuSans-2e" d="M 684 794 
L 1344 794 
L 1344 0 
L 684 0 
L 684 794 
z
" transform="scale(0.015625)"/>
       </defs>
       <use xlink:href="#DejaVuSans-30"/>
       <use xlink:href="#DejaVuSans-2e" x="63.623047"/>
       <use xlink:href="#DejaVuSans-31" x="95.410156"/>
      </g>
     </g>
    </g>
    <g id="ytick_2">
     <g id="line2d_17">
      <path d="M 50.6 268.648 
L 709.2 268.648 
" clip-path="url(#p6c34831623)" style="fill: none; stroke-dasharray: 2.96,1.28; stroke-dashoffset: 0; stroke: #b0b0b0; stroke-opacity: 0.6; stroke-width: 0.8"/>
     </g>
     <g id="line2d_18">
      <g>
       <use xlink:href="#m904777dbe5" x="50.6" y="268.648" style="stroke: #000000; stroke-width: 0.8"/>
      </g>
     </g>
     <g id="text_9">
      <!-- 0.2 -->
      <g transform="translate(27.696875 272.447219) scale(0.1 -0.1)">
       <use xlink:href="#DejaVuSans-30"/>
       <use xlink:href="#DejaVuSans-2e" x="63.623047"/>
       <use xlink:href="#DejaVuSans-32" x="95.410156"/>
      </g>
     </g>
    </g>
    <g id="ytick_3">
     <g id="line2d_19">
      <path d="M 50.6 205.176 
L 709.2 205.176 
" clip-path="url(#p6c34831623)" style="fill: none; stroke-dasharray: 2.96,1.28; stroke-dashoffset: 0; stroke: #b0b0b0; stroke-opacity: 0.6; stroke-width: 0.8"/>
     </g>
     <g id="line2d_20">
      <g>
       <use xlink:href="#m904777dbe5" x="50.6" y="205.176" style="stroke: #000000; stroke-width: 0.8"/>
      </g>
     </g>
     <g id="text_10">
      <!-- 0.3 -->
      <g transform="translate(27.696875 208.975219) scale(0.1 -0.1)">
       <defs>
        <path id="DejaVuSans-33" d="M 2597 2516 
Q 3050 2419 3304 2112 
Q 3559 1806 3559 1356 
Q 3559 666 3084 287 
Q 2609 -91 1734 -91 
Q 1441 -91 1130 -33 
Q 819 25 488 141 
L 488 750 
Q 750 597 1062 519 
Q 1375 441 1716 441 
Q 2309 441 2620 675 
Q 2931 909 2931 1356 
Q 2931 1769 2642 2001 
Q 2353 2234 1838 2234 
L 1294 2234 
L 1294 2753 
L 1863 2753 
Q 2328 2753 2575 2939 
Q 2822 3125 2822 3475 
Q 2822 3834 2567 4026 
Q 2313 4219 1838 4219 
Q 1578 4219 1281 4162 
Q 984 4106 628 3988 
L 628 4550 
Q 988 4650 1302 4700 
Q 1616 4750 1894 4750 
Q 2613 4750 3031 4423 
Q 3450 4097 3450 3541 
Q 3450 3153 3228 2886 
Q 3006 2619 2597 2516 
z
" transform="scale(0.015625)"/>
       </defs>
       <use xlink:href="#DejaVuSans-30"/>
       <use xlink:href="#DejaVuSans-2e" x="63.623047"/>
       <use xlink:href="#DejaVuSans-33" x="95.410156"/>
      </g>
     </g>
    </g>
    <g id="ytick_4">
     <g id="line2d_21">
      <path d="M 50.6 141.704 
L 709.2 141.704 
" clip-path="url(#p6c34831623)" style="fill: none; stroke-dasharray: 2.96,1.28; stroke-dashoffset: 0; stroke: #b0b0b0; stroke-opacity: 0.6; stroke-width: 0.8"/>
     </g>
     <g id="line2d_22">
      <g>
       <use xlink:href="#m904777dbe5" x="50.6" y="141.704" style="stroke: #000000; stroke-width: 0.8"/>
      </g>
     </g>
     <g id="text_11">
      <!-- 0.4 -->
      <g transform="translate(27.696875 145.503219) scale(0.1 -0.1)">
       <use xlink:href="#DejaVuSans-30"/>
       <use xlink:href="#DejaVuSans-2e" x="63.623047"/>
       <use xlink:href="#DejaVuSans-34" x="95.410156"/>
      </g>
     </g>
    </g>
    <g id="ytick_5">
     <g id="line2d_23">
      <path d="M 50.6 78.232 
L 709.2 78.232 
" clip-path="url(#p6c34831623)" style="fill: none; stroke-dasharray: 2.96,1.28; stroke-dashoffset: 0; stroke: #b0b0b0; stroke-opacity: 0.6; stroke-width: 0.8"/>
     </g>
     <g id="line2d_24">
      <g>
       <use xlink:href="#m904777dbe5" x="50.6" y="78.232" style="stroke: #000000; stroke-width: 0.8"/>
      </g>
     </g>
     <g id="text_12">
      <!-- 0.5 -->
      <g transform="translate(27.696875 82.031219) scale(0.1 -0.1)">
       <defs>
        <path id="DejaVuSans-35" d="M 691 4666 
L 3169 4666 
L 3169 4134 
L 1269 4134 
L 1269 2991 
Q 1406 3038 1543 3061 
Q 1681 3084 1819 3084 
Q 2600 3084 3056 2656 
Q 3513 2228 3513 1497 
Q 3513 744 3044 326 
Q 2575 -91 1722 -91 
Q 1428 -91 1123 -41 
Q 819 9 494 109 
L 494 744 
Q 775 591 1075 516 
Q 1375 441 1709 441 
Q 2250 441 2565 725 
Q 2881 1009 2881 1497 
Q 2881 1984 2565 2268 
Q 2250 2553 1709 2553 
Q 1456 2553 1204 2497 
Q 953 2441 691 2322 
L 691 4666 
z
" transform="scale(0.015625)"/>
       </defs>
       <use xlink:href="#DejaVuSans-30"/>
       <use xlink:href="#DejaVuSans-2e" x="63.623047"/>
       <use xlink:href="#DejaVuSans-35" x="95.410156"/>
      </g>
     </g>
    </g>
    <g id="ytick_6">
     <g id="line2d_25">
      <path d="M 50.6 14.76 
L 709.2 14.76 
" clip-path="url(#p6c34831623)" style="fill: none; stroke-dasharray: 2.96,1.28; stroke-dashoffset: 0; stroke: #b0b0b0; stroke-opacity: 0.6; stroke-width: 0.8"/>
     </g>
     <g id="line2d_26">
      <g>
       <use xlink:href="#m904777dbe5" x="50.6" y="14.76" style="stroke: #000000; stroke-width: 0.8"/>
      </g>
     </g>
     <g id="text_13">
      <!-- 0.6 -->
      <g transform="translate(27.696875 18.559219) scale(0.1 -0.1)">
       <use xlink:href="#DejaVuSans-30"/>
       <use xlink:href="#DejaVuSans-2e" x="63.623047"/>
       <use xlink:href="#DejaVuSans-36" x="95.410156"/>
      </g>
     </g>
    </g>
    <g id="text_14">
     <!-- Training Loss -->
     <g transform="translate(21.20125 212.178438) rotate(-90) scale(0.12 -0.12)">
      <defs>
       <path id="DejaVuSans-54" d="M -19 4666 
L 3928 4666 
L 3928 4134 
L 2272 4134 
L 2272 0 
L 1638 0 
L 1638 4134 
L -19 4134 
L -19 4666 
z
" transform="scale(0.015625)"/>
       <path id="DejaVuSans-72" d="M 2631 2963 
Q 2534 3019 2420 3045 
Q 2306 3072 2169 3072 
Q 1681 3072 1420 2755 
Q 1159 2438 1159 1844 
L 1159 0 
L 581 0 
L 581 3500 
L 1159 3500 
L 1159 2956 
Q 1341 3275 1631 3429 
Q 1922 3584 2338 3584 
Q 2397 3584 2469 3576 
Q 2541 3569 2628 3553 
L 2631 2963 
z
" transform="scale(0.015625)"/>
       <path id="DejaVuSans-61" d="M 2194 1759 
Q 1497 1759 1228 1600 
Q 959 1441 959 1056 
Q 959 750 1161 570 
Q 1363 391 1709 391 
Q 2188 391 2477 730 
Q 2766 1069 2766 1631 
L 2766 1759 
L 2194 1759 
z
M 3341 1997 
L 3341 0 
L 2766 0 
L 2766 531 
Q 2569 213 2275 61 
Q 1981 -91 1556 -91 
Q 1019 -91 701 211 
Q 384 513 384 1019 
Q 384 1609 779 1909 
Q 1175 2209 1959 2209 
L 2766 2209 
L 2766 2266 
Q 2766 2663 2505 2880 
Q 2244 3097 1772 3097 
Q 1472 3097 1187 3025 
Q 903 2953 641 2809 
L 641 3341 
Q 956 3463 1253 3523 
Q 1550 3584 1831 3584 
Q 2591 3584 2966 3190 
Q 3341 2797 3341 1997 
z
" transform="scale(0.015625)"/>
       <path id="DejaVuSans-69" d="M 603 3500 
L 1178 3500 
L 1178 0 
L 603 0 
L 603 3500 
z
M 603 4863 
L 1178 4863 
L 1178 4134 
L 603 4134 
L 603 4863 
z
" transform="scale(0.015625)"/>
       <path id="DejaVuSans-6e" d="M 3513 2113 
L 3513 0 
L 2938 0 
L 2938 2094 
Q 2938 2591 2744 2837 
Q 2550 3084 2163 3084 
Q 1697 3084 1428 2787 
Q 1159 2491 1159 1978 
L 1159 0 
L 581 0 
L 581 3500 
L 1159 3500 
L 1159 2956 
Q 1366 3272 1645 3428 
Q 1925 3584 2291 3584 
Q 2894 3584 3203 3211 
Q 3513 2838 3513 2113 
z
" transform="scale(0.015625)"/>
       <path id="DejaVuSans-67" d="M 2906 1791 
Q 2906 2416 2648 2759 
Q 2391 3103 1925 3103 
Q 1463 3103 1205 2759 
Q 947 2416 947 1791 
Q 947 1169 1205 825 
Q 1463 481 1925 481 
Q 2391 481 2648 825 
Q 2906 1169 2906 1791 
z
M 3481 434 
Q 3481 -459 3084 -895 
Q 2688 -1331 1869 -1331 
Q 1566 -1331 1297 -1286 
Q 1028 -1241 775 -1147 
L 775 -588 
Q 1028 -725 1275 -790 
Q 1522 -856 1778 -856 
Q 2344 -856 2625 -561 
Q 2906 -266 2906 331 
L 2906 616 
Q 2728 306 2450 153 
Q 2172 0 1784 0 
Q 1141 0 747 490 
Q 353 981 353 1791 
Q 353 2603 747 3093 
Q 1141 3584 1784 3584 
Q 2172 3584 2450 3431 
Q 2728 3278 2906 2969 
L 2906 3500 
L 3481 3500 
L 3481 434 
z
" transform="scale(0.015625)"/>
       <path id="DejaVuSans-20" transform="scale(0.015625)"/>
       <path id="DejaVuSans-4c" d="M 628 4666 
L 1259 4666 
L 1259 531 
L 3531 531 
L 3531 0 
L 628 0 
L 628 4666 
z
" transform="scale(0.015625)"/>
       <path id="DejaVuSans-6f" d="M 1959 3097 
Q 1497 3097 1228 2736 
Q 959 2375 959 1747 
Q 959 1119 1226 758 
Q 1494 397 1959 397 
Q 2419 397 2687 759 
Q 2956 1122 2956 1747 
Q 2956 2369 2687 2733 
Q 2419 3097 1959 3097 
z
M 1959 3584 
Q 2709 3584 3137 3096 
Q 3566 2609 3566 1747 
Q 3566 888 3137 398 
Q 2709 -91 1959 -91 
Q 1206 -91 779 398 
Q 353 888 353 1747 
Q 353 2609 779 3096 
Q 1206 3584 1959 3584 
z
" transform="scale(0.015625)"/>
       <path id="DejaVuSans-73" d="M 2834 3397 
L 2834 2853 
Q 2591 2978 2328 3040 
Q 2066 3103 1784 3103 
Q 1356 3103 1142 2972 
Q 928 2841 928 2578 
Q 928 2378 1081 2264 
Q 1234 2150 1697 2047 
L 1894 2003 
Q 2506 1872 2764 1633 
Q 3022 1394 3022 966 
Q 3022 478 2636 193 
Q 2250 -91 1575 -91 
Q 1294 -91 989 -36 
Q 684 19 347 128 
L 347 722 
Q 666 556 975 473 
Q 1284 391 1588 391 
Q 1994 391 2212 530 
Q 2431 669 2431 922 
Q 2431 1156 2273 1281 
Q 2116 1406 1581 1522 
L 1381 1569 
Q 847 1681 609 1914 
Q 372 2147 372 2553 
Q 372 3047 722 3315 
Q 1072 3584 1716 3584 
Q 2034 3584 2315 3537 
Q 2597 3491 2834 3397 
z
" transform="scale(0.015625)"/>
      </defs>
      <use xlink:href="#DejaVuSans-54"/>
      <use xlink:href="#DejaVuSans-72" x="46.333984"/>
      <use xlink:href="#DejaVuSans-61" x="87.447266"/>
      <use xlink:href="#DejaVuSans-69" x="148.726562"/>
      <use xlink:href="#DejaVuSans-6e" x="176.509766"/>
      <use xlink:href="#DejaVuSans-69" x="239.888672"/>
      <use xlink:href="#DejaVuSans-6e" x="267.671875"/>
      <use xlink:href="#DejaVuSans-67" x="331.050781"/>
      <use xlink:href="#DejaVuSans-20" x="394.527344"/>
      <use xlink:href="#DejaVuSans-4c" x="426.314453"/>
      <use xlink:href="#DejaVuSans-6f" x="480.277344"/>
      <use xlink:href="#DejaVuSans-73" x="541.458984"/>
      <use xlink:href="#DejaVuSans-73" x="593.558594"/>
     </g>
    </g>
   </g>
   <g id="line2d_27">
    <path d="M 58.738928 -1 
L 65.372336 111.760386 
L 72.758505 136.392524 
L 80.144673 163.74977 
L 87.530841 165.42425 
L 94.917009 184.368939 
L 102.303178 170.937382 
L 109.689346 199.18305 
L 117.075514 197.932091 
L 124.461682 189.466641 
L 131.84785 199.704904 
L 139.234019 211.479399 
L 146.620187 222.269526 
L 154.006355 212.363708 
L 161.392523 221.780367 
L 168.778692 217.935886 
L 176.16486 230.251154 
L 183.551028 224.892404 
L 190.937196 228.4483 
L 198.323364 241.667647 
L 205.709533 231.858268 
L 213.095701 252.668624 
L 220.481869 247.621126 
L 227.868037 246.118147 
L 235.254206 240.815368 
L 242.640374 253.790922 
L 250.026542 257.08258 
L 257.41271 255.413781 
L 264.798879 255.239809 
L 272.185047 270.212876 
L 279.571215 253.152213 
L 286.957383 262.276609 
L 294.343551 262.092551 
L 301.72972 276.469474 
L 309.115888 271.498522 
L 316.502056 263.244762 
L 323.888224 278.473883 
L 331.274393 262.529308 
L 338.660561 276.974276 
L 346.046729 274.467099 
L 353.432897 276.508136 
L 360.819065 282.315505 
L 368.205234 271.190171 
L 375.591402 287.896415 
L 382.97757 285.683379 
L 390.363738 279.131326 
L 397.749907 279.997076 
L 405.136075 283.572824 
L 412.522243 292.611573 
L 419.908411 285.815587 
L 427.294579 295.75648 
L 434.680748 286.366206 
L 442.066916 276.860386 
L 449.453084 297.675778 
L 456.839252 283.897522 
L 464.225421 303.219451 
L 471.611589 290.749209 
L 478.997757 304.808027 
L 486.383925 278.745011 
L 493.770093 300.447893 
L 501.156262 295.269507 
L 508.54243 307.396832 
L 515.928598 285.828098 
L 523.314766 304.606847 
L 530.700935 310.794059 
L 538.087103 307.381382 
L 545.473271 291.131981 
L 552.859439 293.203086 
L 560.245607 301.875305 
L 567.631776 309.461816 
L 575.017944 303.980055 
L 582.404112 309.977448 
L 589.79028 302.710595 
L 597.176449 305.71533 
L 604.562617 300.381706 
L 611.948785 308.322813 
L 619.334953 319.445424 
L 626.721121 304.331209 
L 634.10729 295.141129 
L 641.493458 294.424517 
L 648.879626 313.538364 
L 656.265794 301.17748 
L 663.651963 307.192595 
L 671.038131 292.14715 
L 678.424299 310.795028 
L 685.810467 308.469733 
L 693.196636 305.111008 
L 700.582804 309.787143 
L 707.968972 306.915475 
L 715.35514 331.110563 
" clip-path="url(#p6c34831623)" style="fill: none; stroke: #f7aa58; stroke-opacity: 0.9; stroke-width: 2.5; stroke-linecap: square"/>
   </g>
   <g id="line2d_28">
    <path d="M 59.571702 -1 
L 65.372336 86.17174 
L 72.758505 135.128736 
L 80.144673 163.435176 
L 87.530841 163.143596 
L 94.917009 183.735525 
L 102.303178 169.427396 
L 109.689346 195.04776 
L 117.075514 190.031122 
L 124.461682 192.442573 
L 131.84785 202.037263 
L 139.234019 215.931137 
L 146.620187 220.931464 
L 154.006355 204.315295 
L 161.392523 226.420655 
L 168.778692 229.781939 
L 176.16486 224.273869 
L 183.551028 232.743188 
L 190.937196 240.117756 
L 198.323364 243.641666 
L 205.709533 244.517741 
L 213.095701 257.498134 
L 220.481869 263.955083 
L 227.868037 243.237346 
L 235.254206 239.940845 
L 242.640374 266.138799 
L 250.026542 266.002884 
L 257.41271 256.844821 
L 264.798879 263.582406 
L 272.185047 261.917963 
L 279.571215 276.390351 
L 286.957383 256.241742 
L 294.343551 273.92882 
L 301.72972 286.166778 
L 309.115888 265.823904 
L 316.502056 281.255417 
L 323.888224 295.969536 
L 331.274393 271.898493 
L 338.660561 269.396587 
L 346.046729 290.079893 
L 353.432897 271.110241 
L 360.819065 282.582134 
L 368.205234 293.141436 
L 375.591402 299.856631 
L 382.97757 288.704948 
L 390.363738 300.209691 
L 397.749907 306.266684 
L 405.136075 296.461403 
L 412.522243 295.138499 
L 419.908411 289.634925 
L 427.294579 304.841305 
L 434.680748 295.183135 
L 442.066916 302.515832 
L 449.453084 308.744666 
L 456.839252 295.644943 
L 464.225421 311.664806 
L 471.611589 297.174581 
L 478.997757 313.794134 
L 486.383925 300.798159 
L 493.770093 319.161258 
L 501.156262 301.336135 
L 508.54243 313.511957 
L 515.928598 308.947764 
L 523.314766 311.395304 
L 530.700935 306.311678 
L 538.087103 319.244223 
L 545.473271 312.0086 
L 552.859439 314.91513 
L 560.245607 303.474657 
L 567.631776 321.654446 
L 575.017944 317.471483 
L 582.404112 323.380993 
L 589.79028 326.623151 
L 597.176449 317.438422 
L 604.562617 305.857916 
L 611.948785 316.421813 
L 619.334953 326.190856 
L 626.721121 312.262039 
L 634.10729 315.367074 
L 641.493458 319.943054 
L 648.879626 313.030359 
L 656.265794 311.009722 
L 663.651963 317.130994 
L 671.038131 320.679889 
L 678.424299 318.019631 
L 685.810467 313.596015 
L 693.196636 318.838978 
L 700.582804 315.460516 
L 707.968972 317.758411 
L 715.35514 330.736423 
" clip-path="url(#p6c34831623)" style="fill: none; stroke: #e76254; stroke-opacity: 0.9; stroke-width: 2.5; stroke-linecap: square"/>
   </g>
   <g id="line2d_29">
    <path d="M 62.85497 -1 
L 65.372336 13.227285 
L 72.758505 42.218997 
L 80.144673 118.842595 
L 87.530841 115.711597 
L 94.917009 135.686537 
L 102.303178 127.722985 
L 109.689346 150.698373 
L 117.075514 142.983641 
L 124.461682 144.302449 
L 131.84785 151.22482 
L 139.234019 160.35812 
L 146.620187 161.762497 
L 154.006355 157.640558 
L 161.392523 159.883442 
L 168.778692 174.98941 
L 176.16486 164.673722 
L 183.551028 166.981229 
L 190.937196 162.60749 
L 198.323364 174.797838 
L 205.709533 179.972871 
L 213.095701 178.314407 
L 220.481869 176.161975 
L 227.868037 182.750491 
L 235.254206 172.919743 
L 242.640374 183.825781 
L 250.026542 197.104701 
L 257.41271 186.500867 
L 264.798879 179.192151 
L 272.185047 186.790226 
L 279.571215 202.401147 
L 286.957383 182.01664 
L 294.343551 191.996085 
L 301.72972 205.122854 
L 309.115888 196.677978 
L 316.502056 192.020309 
L 323.888224 208.546752 
L 331.274393 191.859349 
L 338.660561 189.742067 
L 346.046729 199.952856 
L 353.432897 178.616854 
L 360.819065 199.14739 
L 368.205234 210.243152 
L 375.591402 209.458938 
L 382.97757 202.079706 
L 390.363738 197.005047 
L 397.749907 222.472764 
L 405.136075 206.264404 
L 412.522243 204.426798 
L 419.908411 208.421552 
L 427.294579 205.301677 
L 434.680748 199.556845 
L 442.066916 208.037469 
L 449.453084 215.537302 
L 456.839252 199.015357 
L 464.225421 199.912512 
L 471.611589 216.167521 
L 478.997757 216.842863 
L 486.383925 207.173343 
L 493.770093 221.014106 
L 501.156262 219.328734 
L 508.54243 217.063985 
L 515.928598 204.891505 
L 523.314766 209.896875 
L 530.700935 203.607972 
L 538.087103 219.981577 
L 545.473271 208.577519 
L 552.859439 226.008774 
L 560.245607 204.03355 
L 567.631776 215.198268 
L 575.017944 214.956401 
L 582.404112 209.631754 
L 589.79028 220.957755 
L 597.176449 212.14175 
L 604.562617 211.391425 
L 611.948785 217.051866 
L 619.334953 217.337786 
L 626.721121 211.081547 
L 634.10729 208.307819 
L 641.493458 222.877537 
L 648.879626 218.345799 
L 656.265794 219.509257 
L 663.651963 211.072134 
L 671.038131 215.492621 
L 678.424299 218.093332 
L 685.810467 222.4046 
L 693.196636 210.784579 
L 700.582804 213.812492 
L 707.968972 209.875583 
L 715.35514 202.024114 
" clip-path="url(#p6c34831623)" style="fill: none; stroke: #528fad; stroke-opacity: 0.9; stroke-width: 2.5; stroke-linecap: square"/>
   </g>
   <g id="patch_3">
    <path d="M 50.6 332.12 
L 50.6 14.76 
" style="fill: none; stroke: #000000; stroke-width: 0.8; stroke-linejoin: miter; stroke-linecap: square"/>
   </g>
   <g id="patch_4">
    <path d="M 709.2 332.12 
L 709.2 14.76 
" style="fill: none; stroke: #000000; stroke-width: 0.8; stroke-linejoin: miter; stroke-linecap: square"/>
   </g>
   <g id="patch_5">
    <path d="M 50.6 332.12 
L 709.2 332.12 
" style="fill: none; stroke: #000000; stroke-width: 0.8; stroke-linejoin: miter; stroke-linecap: square"/>
   </g>
   <g id="patch_6">
    <path d="M 50.6 14.76 
L 709.2 14.76 
" style="fill: none; stroke: #000000; stroke-width: 0.8; stroke-linejoin: miter; stroke-linecap: square"/>
   </g>
   <g id="axes_2">
    <g id="patch_7">
     <path d="M 379.9 157.572 
L 676.27 157.572 
L 676.27 62.364 
L 379.9 62.364 
z
" style="fill: #ffffff"/>
    </g>
    <g id="matplotlib.axis_3">
     <g id="xtick_8">
      <g id="line2d_30">
       <path d="M 393.371364 157.572 
L 393.371364 62.364 
" clip-path="url(#p9e1c4d20b7)" style="fill: none; stroke-dasharray: 2.96,1.28; stroke-dashoffset: 0; stroke: #b0b0b0; stroke-opacity: 0.4; stroke-width: 0.8"/>
      </g>
      <g id="line2d_31">
       <g>
        <use xlink:href="#m186e392472" x="393.371364" y="157.572" style="stroke: #000000; stroke-width: 0.8"/>
       </g>
      </g>
      <g id="text_15">
       <!-- 0 -->
       <g transform="translate(390.190114 172.170437) scale(0.1 -0.1)">
        <use xlink:href="#DejaVuSans-30"/>
       </g>
      </g>
     </g>
     <g id="xtick_9">
      <g id="line2d_32">
       <path d="M 460.728182 157.572 
L 460.728182 62.364 
" clip-path="url(#p9e1c4d20b7)" style="fill: none; stroke-dasharray: 2.96,1.28; stroke-dashoffset: 0; stroke: #b0b0b0; stroke-opacity: 0.4; stroke-width: 0.8"/>
      </g>
      <g id="line2d_33">
       <g>
        <use xlink:href="#m186e392472" x="460.728182" y="157.572" style="stroke: #000000; stroke-width: 0.8"/>
       </g>
      </g>
      <g id="text_16">
       <!-- 25 -->
       <g transform="translate(454.365682 172.170437) scale(0.1 -0.1)">
        <use xlink:href="#DejaVuSans-32"/>
        <use xlink:href="#DejaVuSans-35" x="63.623047"/>
       </g>
      </g>
     </g>
     <g id="xtick_10">
      <g id="line2d_34">
       <path d="M 528.085 157.572 
L 528.085 62.364 
" clip-path="url(#p9e1c4d20b7)" style="fill: none; stroke-dasharray: 2.96,1.28; stroke-dashoffset: 0; stroke: #b0b0b0; stroke-opacity: 0.4; stroke-width: 0.8"/>
      </g>
      <g id="line2d_35">
       <g>
        <use xlink:href="#m186e392472" x="528.085" y="157.572" style="stroke: #000000; stroke-width: 0.8"/>
       </g>
      </g>
      <g id="text_17">
       <!-- 50 -->
       <g transform="translate(521.7225 172.170437) scale(0.1 -0.1)">
        <use xlink:href="#DejaVuSans-35"/>
        <use xlink:href="#DejaVuSans-30" x="63.623047"/>
       </g>
      </g>
     </g>
     <g id="xtick_11">
      <g id="line2d_36">
       <path d="M 595.441818 157.572 
L 595.441818 62.364 
" clip-path="url(#p9e1c4d20b7)" style="fill: none; stroke-dasharray: 2.96,1.28; stroke-dashoffset: 0; stroke: #b0b0b0; stroke-opacity: 0.4; stroke-width: 0.8"/>
      </g>
      <g id="line2d_37">
       <g>
        <use xlink:href="#m186e392472" x="595.441818" y="157.572" style="stroke: #000000; stroke-width: 0.8"/>
       </g>
      </g>
      <g id="text_18">
       <!-- 75 -->
       <g transform="translate(589.079318 172.170437) scale(0.1 -0.1)">
        <defs>
         <path id="DejaVuSans-37" d="M 525 4666 
L 3525 4666 
L 3525 4397 
L 1831 0 
L 1172 0 
L 2766 4134 
L 525 4134 
L 525 4666 
z
" transform="scale(0.015625)"/>
        </defs>
        <use xlink:href="#DejaVuSans-37"/>
        <use xlink:href="#DejaVuSans-35" x="63.623047"/>
       </g>
      </g>
     </g>
     <g id="xtick_12">
      <g id="line2d_38">
       <path d="M 662.798636 157.572 
L 662.798636 62.364 
" clip-path="url(#p9e1c4d20b7)" style="fill: none; stroke-dasharray: 2.96,1.28; stroke-dashoffset: 0; stroke: #b0b0b0; stroke-opacity: 0.4; stroke-width: 0.8"/>
      </g>
      <g id="line2d_39">
       <g>
        <use xlink:href="#m186e392472" x="662.798636" y="157.572" style="stroke: #000000; stroke-width: 0.8"/>
       </g>
      </g>
      <g id="text_19">
       <!-- 100 -->
       <g transform="translate(653.254886 172.170437) scale(0.1 -0.1)">
        <use xlink:href="#DejaVuSans-31"/>
        <use xlink:href="#DejaVuSans-30" x="63.623047"/>
        <use xlink:href="#DejaVuSans-30" x="127.246094"/>
       </g>
      </g>
     </g>
     <g id="text_20">
      <!-- The First 100 Steps -->
      <g transform="translate(479.962344 185.848562) scale(0.1 -0.1)">
       <defs>
        <path id="DejaVuSans-68" d="M 3513 2113 
L 3513 0 
L 2938 0 
L 2938 2094 
Q 2938 2591 2744 2837 
Q 2550 3084 2163 3084 
Q 1697 3084 1428 2787 
Q 1159 2491 1159 1978 
L 1159 0 
L 581 0 
L 581 4863 
L 1159 4863 
L 1159 2956 
Q 1366 3272 1645 3428 
Q 1925 3584 2291 3584 
Q 2894 3584 3203 3211 
Q 3513 2838 3513 2113 
z
" transform="scale(0.015625)"/>
        <path id="DejaVuSans-65" d="M 3597 1894 
L 3597 1613 
L 953 1613 
Q 991 1019 1311 708 
Q 1631 397 2203 397 
Q 2534 397 2845 478 
Q 3156 559 3463 722 
L 3463 178 
Q 3153 47 2828 -22 
Q 2503 -91 2169 -91 
Q 1331 -91 842 396 
Q 353 884 353 1716 
Q 353 2575 817 3079 
Q 1281 3584 2069 3584 
Q 2775 3584 3186 3129 
Q 3597 2675 3597 1894 
z
M 3022 2063 
Q 3016 2534 2758 2815 
Q 2500 3097 2075 3097 
Q 1594 3097 1305 2825 
Q 1016 2553 972 2059 
L 3022 2063 
z
" transform="scale(0.015625)"/>
        <path id="DejaVuSans-46" d="M 628 4666 
L 3309 4666 
L 3309 4134 
L 1259 4134 
L 1259 2759 
L 3109 2759 
L 3109 2228 
L 1259 2228 
L 1259 0 
L 628 0 
L 628 4666 
z
" transform="scale(0.015625)"/>
        <path id="DejaVuSans-74" d="M 1172 4494 
L 1172 3500 
L 2356 3500 
L 2356 3053 
L 1172 3053 
L 1172 1153 
Q 1172 725 1289 603 
Q 1406 481 1766 481 
L 2356 481 
L 2356 0 
L 1766 0 
Q 1100 0 847 248 
Q 594 497 594 1153 
L 594 3053 
L 172 3053 
L 172 3500 
L 594 3500 
L 594 4494 
L 1172 4494 
z
" transform="scale(0.015625)"/>
        <path id="DejaVuSans-53" d="M 3425 4513 
L 3425 3897 
Q 3066 4069 2747 4153 
Q 2428 4238 2131 4238 
Q 1616 4238 1336 4038 
Q 1056 3838 1056 3469 
Q 1056 3159 1242 3001 
Q 1428 2844 1947 2747 
L 2328 2669 
Q 3034 2534 3370 2195 
Q 3706 1856 3706 1288 
Q 3706 609 3251 259 
Q 2797 -91 1919 -91 
Q 1588 -91 1214 -16 
Q 841 59 441 206 
L 441 856 
Q 825 641 1194 531 
Q 1563 422 1919 422 
Q 2459 422 2753 634 
Q 3047 847 3047 1241 
Q 3047 1584 2836 1778 
Q 2625 1972 2144 2069 
L 1759 2144 
Q 1053 2284 737 2584 
Q 422 2884 422 3419 
Q 422 4038 858 4394 
Q 1294 4750 2059 4750 
Q 2388 4750 2728 4690 
Q 3069 4631 3425 4513 
z
" transform="scale(0.015625)"/>
        <path id="DejaVuSans-70" d="M 1159 525 
L 1159 -1331 
L 581 -1331 
L 581 3500 
L 1159 3500 
L 1159 2969 
Q 1341 3281 1617 3432 
Q 1894 3584 2278 3584 
Q 2916 3584 3314 3078 
Q 3713 2572 3713 1747 
Q 3713 922 3314 415 
Q 2916 -91 2278 -91 
Q 1894 -91 1617 61 
Q 1341 213 1159 525 
z
M 3116 1747 
Q 3116 2381 2855 2742 
Q 2594 3103 2138 3103 
Q 1681 3103 1420 2742 
Q 1159 2381 1159 1747 
Q 1159 1113 1420 752 
Q 1681 391 2138 391 
Q 2594 391 2855 752 
Q 3116 1113 3116 1747 
z
" transform="scale(0.015625)"/>
       </defs>
       <use xlink:href="#DejaVuSans-54"/>
       <use xlink:href="#DejaVuSans-68" x="61.083984"/>
       <use xlink:href="#DejaVuSans-65" x="124.462891"/>
       <use xlink:href="#DejaVuSans-20" x="185.986328"/>
       <use xlink:href="#DejaVuSans-46" x="217.773438"/>
       <use xlink:href="#DejaVuSans-69" x="268.042969"/>
       <use xlink:href="#DejaVuSans-72" x="295.826172"/>
       <use xlink:href="#DejaVuSans-73" x="336.939453"/>
       <use xlink:href="#DejaVuSans-74" x="389.039062"/>
       <use xlink:href="#DejaVuSans-20" x="428.248047"/>
       <use xlink:href="#DejaVuSans-31" x="460.035156"/>
       <use xlink:href="#DejaVuSans-30" x="523.658203"/>
       <use xlink:href="#DejaVuSans-30" x="587.28125"/>
       <use xlink:href="#DejaVuSans-20" x="650.904297"/>
       <use xlink:href="#DejaVuSans-53" x="682.691406"/>
       <use xlink:href="#DejaVuSans-74" x="746.167969"/>
       <use xlink:href="#DejaVuSans-65" x="785.376953"/>
       <use xlink:href="#DejaVuSans-70" x="846.900391"/>
       <use xlink:href="#DejaVuSans-73" x="910.376953"/>
      </g>
     </g>
    </g>
    <g id="matplotlib.axis_4">
     <g id="ytick_7">
      <g id="line2d_40">
       <path d="M 379.9 138.5304 
L 676.27 138.5304 
" clip-path="url(#p9e1c4d20b7)" style="fill: none; stroke-dasharray: 2.96,1.28; stroke-dashoffset: 0; stroke: #b0b0b0; stroke-opacity: 0.4; stroke-width: 0.8"/>
      </g>
      <g id="line2d_41">
       <g>
        <use xlink:href="#m904777dbe5" x="379.9" y="138.5304" style="stroke: #000000; stroke-width: 0.8"/>
       </g>
      </g>
      <g id="text_21">
       <!-- 0.6 -->
       <g transform="translate(356.996875 142.329619) scale(0.1 -0.1)">
        <use xlink:href="#DejaVuSans-30"/>
        <use xlink:href="#DejaVuSans-2e" x="63.623047"/>
        <use xlink:href="#DejaVuSans-36" x="95.410156"/>
       </g>
      </g>
     </g>
     <g id="ytick_8">
      <g id="line2d_42">
       <path d="M 379.9 100.4472 
L 676.27 100.4472 
" clip-path="url(#p9e1c4d20b7)" style="fill: none; stroke-dasharray: 2.96,1.28; stroke-dashoffset: 0; stroke: #b0b0b0; stroke-opacity: 0.4; stroke-width: 0.8"/>
      </g>
      <g id="line2d_43">
       <g>
        <use xlink:href="#m904777dbe5" x="379.9" y="100.4472" style="stroke: #000000; stroke-width: 0.8"/>
       </g>
      </g>
      <g id="text_22">
       <!-- 0.7 -->
       <g transform="translate(356.996875 104.246419) scale(0.1 -0.1)">
        <use xlink:href="#DejaVuSans-30"/>
        <use xlink:href="#DejaVuSans-2e" x="63.623047"/>
        <use xlink:href="#DejaVuSans-37" x="95.410156"/>
       </g>
      </g>
     </g>
     <g id="ytick_9">
      <g id="line2d_44">
       <path d="M 379.9 62.364 
L 676.27 62.364 
" clip-path="url(#p9e1c4d20b7)" style="fill: none; stroke-dasharray: 2.96,1.28; stroke-dashoffset: 0; stroke: #b0b0b0; stroke-opacity: 0.4; stroke-width: 0.8"/>
      </g>
      <g id="line2d_45">
       <g>
        <use xlink:href="#m904777dbe5" x="379.9" y="62.364" style="stroke: #000000; stroke-width: 0.8"/>
       </g>
      </g>
      <g id="text_23">
       <!-- 0.8 -->
       <g transform="translate(356.996875 66.163219) scale(0.1 -0.1)">
        <use xlink:href="#DejaVuSans-30"/>
        <use xlink:href="#DejaVuSans-2e" x="63.623047"/>
        <use xlink:href="#DejaVuSans-38" x="95.410156"/>
       </g>
      </g>
     </g>
     <g id="text_24">
      <!-- Training Loss -->
      <g transform="translate(350.917188 142.250031) rotate(-90) scale(0.1 -0.1)">
       <use xlink:href="#DejaVuSans-54"/>
       <use xlink:href="#DejaVuSans-72" x="46.333984"/>
       <use xlink:href="#DejaVuSans-61" x="87.447266"/>
       <use xlink:href="#DejaVuSans-69" x="148.726562"/>
       <use xlink:href="#DejaVuSans-6e" x="176.509766"/>
       <use xlink:href="#DejaVuSans-69" x="239.888672"/>
       <use xlink:href="#DejaVuSans-6e" x="267.671875"/>
       <use xlink:href="#DejaVuSans-67" x="331.050781"/>
       <use xlink:href="#DejaVuSans-20" x="394.527344"/>
       <use xlink:href="#DejaVuSans-4c" x="426.314453"/>
       <use xlink:href="#DejaVuSans-6f" x="480.277344"/>
       <use xlink:href="#DejaVuSans-73" x="541.458984"/>
       <use xlink:href="#DejaVuSans-73" x="593.558594"/>
      </g>
     </g>
    </g>
    <g id="line2d_46">
     <path d="M 398.759909 91.688454 
L 404.148455 85.219648 
L 409.537 89.117922 
L 414.925545 85.959102 
L 420.314091 88.477664 
L 425.702636 93.500929 
L 431.091182 95.049309 
L 436.479727 88.351126 
L 441.868273 92.41876 
L 447.256818 87.051066 
L 452.645364 93.031756 
L 458.033909 95.811656 
L 463.422455 92.846632 
L 468.811 96.241218 
L 474.199545 99.275089 
L 479.588091 98.089468 
L 484.976636 96.28261 
L 490.365182 97.806645 
L 495.753727 99.339045 
L 501.142273 96.014474 
L 506.530818 97.279453 
L 511.919364 101.162087 
L 517.307909 103.567628 
L 522.696455 107.67653 
L 528.085 109.40664 
L 533.473545 109.571415 
L 538.862091 106.458437 
L 544.250636 110.839855 
L 549.639182 111.376161 
L 555.027727 113.051476 
L 560.416273 121.890787 
L 565.804818 111.696756 
L 571.193364 118.342106 
L 576.581909 132.869875 
L 581.970455 117.865147 
L 587.359 117.065789 
L 592.747545 115.290121 
L 598.136091 116.301388 
L 603.524636 111.223281 
L 608.913182 129.575529 
L 614.301727 119.069484 
L 619.690273 109.867539 
L 625.078818 145.52665 
L 630.467364 140.943991 
L 635.855909 144.713321 
L 641.244455 128.444556 
L 646.633 141.521042 
L 652.021545 149.137857 
L 657.410091 143.913997 
L 662.798636 137.978604 
" clip-path="url(#p9e1c4d20b7)" style="fill: none; stroke: #f7aa58; stroke-opacity: 0.9; stroke-width: 1.5; stroke-linecap: square"/>
    </g>
    <g id="line2d_47">
     <path d="M 398.759909 86.942597 
L 404.148455 87.823593 
L 409.537 97.483736 
L 414.925545 92.832978 
L 420.314091 103.695233 
L 425.702636 106.508194 
L 431.091182 89.959864 
L 436.479727 96.091471 
L 441.868273 94.93428 
L 447.256818 90.607068 
L 452.645364 94.536258 
L 458.033909 98.080536 
L 463.422455 92.501147 
L 468.811 93.775342 
L 474.199545 92.32836 
L 479.588091 100.878515 
L 484.976636 99.259063 
L 490.365182 99.307538 
L 495.753727 98.953019 
L 501.142273 103.412558 
L 506.530818 102.496162 
L 511.919364 104.035042 
L 517.307909 103.062726 
L 522.696455 98.112939 
L 528.085 103.484912 
L 533.473545 107.594585 
L 538.862091 103.248702 
L 544.250636 99.843651 
L 549.639182 110.009955 
L 555.027727 108.294474 
L 560.416273 106.739761 
L 565.804818 108.682599 
L 571.193364 119.04935 
L 576.581909 125.601689 
L 581.970455 118.712048 
L 587.359 116.47404 
L 592.747545 109.355805 
L 598.136091 118.74738 
L 603.524636 129.541196 
L 608.913182 122.409864 
L 614.301727 116.921796 
L 619.690273 125.56966 
L 625.078818 117.916538 
L 630.467364 116.741211 
L 635.855909 111.946369 
L 641.244455 142.771391 
L 646.633 140.734101 
L 652.021545 130.50517 
L 657.410091 126.158334 
L 662.798636 106.687337 
" clip-path="url(#p9e1c4d20b7)" style="fill: none; stroke: #e76254; stroke-opacity: 0.9; stroke-width: 1.5; stroke-linecap: square"/>
    </g>
    <g id="line2d_48">
     <path d="M 398.759909 83.110219 
L 404.148455 92.784254 
L 409.537 89.993606 
L 414.925545 92.950583 
L 420.314091 100.075264 
L 425.702636 98.818923 
L 431.091182 96.322584 
L 436.479727 92.080948 
L 441.868273 93.971521 
L 447.256818 98.201989 
L 452.645364 95.442757 
L 458.033909 99.569795 
L 463.422455 90.087116 
L 468.811 91.07052 
L 474.199545 94.134865 
L 479.588091 97.462058 
L 484.976636 101.579505 
L 490.365182 96.361377 
L 495.753727 97.812763 
L 501.142273 99.164521 
L 506.530818 105.09374 
L 511.919364 102.24984 
L 517.307909 104.708384 
L 522.696455 99.198547 
L 528.085 103.763853 
L 533.473545 102.201002 
L 538.862091 105.252601 
L 544.250636 101.17195 
L 549.639182 110.65792 
L 555.027727 110.950038 
L 560.416273 99.32446 
L 565.804818 108.724218 
L 571.193364 119.678178 
L 576.581909 115.985379 
L 581.970455 117.656914 
L 587.359 114.641566 
L 592.747545 109.457101 
L 598.136091 120.478161 
L 603.524636 120.996012 
L 608.913182 119.02715 
L 614.301727 111.984856 
L 619.690273 120.706652 
L 625.078818 115.601 
L 630.467364 110.409453 
L 635.855909 110.105134 
L 641.244455 136.72401 
L 646.633 133.91896 
L 652.021545 128.485313 
L 657.410091 120.484017 
L 662.798636 102.956834 
" clip-path="url(#p9e1c4d20b7)" style="fill: none; stroke: #528fad; stroke-opacity: 0.9; stroke-width: 1.5; stroke-linecap: square"/>
    </g>
    <g id="patch_8">
     <path d="M 379.9 157.572 
L 379.9 62.364 
" style="fill: none; stroke: #000000; stroke-width: 0.8; stroke-linejoin: miter; stroke-linecap: square"/>
    </g>
    <g id="patch_9">
     <path d="M 676.27 157.572 
L 676.27 62.364 
" style="fill: none; stroke: #000000; stroke-width: 0.8; stroke-linejoin: miter; stroke-linecap: square"/>
    </g>
    <g id="patch_10">
     <path d="M 379.9 157.572 
L 676.27 157.572 
" style="fill: none; stroke: #000000; stroke-width: 0.8; stroke-linejoin: miter; stroke-linecap: square"/>
    </g>
    <g id="patch_11">
     <path d="M 379.9 62.364 
L 676.27 62.364 
" style="fill: none; stroke: #000000; stroke-width: 0.8; stroke-linejoin: miter; stroke-linecap: square"/>
    </g>
   </g>
   <g id="legend_1">
    <g id="patch_12">
     <path d="M 586.045313 93.22875 
L 698.7 93.22875 
Q 701.7 93.22875 701.7 90.22875 
L 701.7 25.26 
Q 701.7 22.26 698.7 22.26 
L 586.045313 22.26 
Q 583.045313 22.26 583.045313 25.26 
L 583.045313 90.22875 
Q 583.045313 93.22875 586.045313 93.22875 
z
" style="fill: #ffffff; opacity: 0.8; stroke: #cccccc; stroke-linejoin: miter"/>
    </g>
    <g id="line2d_49">
     <path d="M 589.045313 34.407656 
L 604.045313 34.407656 
L 619.045313 34.407656 
" style="fill: none; stroke: #f7aa58; stroke-opacity: 0.9; stroke-width: 2.5; stroke-linecap: square"/>
    </g>
    <g id="text_25">
     <!-- FiLoRA -->
     <g transform="translate(631.045313 39.657656) scale(0.15 -0.15)">
      <defs>
       <path id="DejaVuSans-52" d="M 2841 2188 
Q 3044 2119 3236 1894 
Q 3428 1669 3622 1275 
L 4263 0 
L 3584 0 
L 2988 1197 
Q 2756 1666 2539 1819 
Q 2322 1972 1947 1972 
L 1259 1972 
L 1259 0 
L 628 0 
L 628 4666 
L 2053 4666 
Q 2853 4666 3247 4331 
Q 3641 3997 3641 3322 
Q 3641 2881 3436 2590 
Q 3231 2300 2841 2188 
z
M 1259 4147 
L 1259 2491 
L 2053 2491 
Q 2509 2491 2742 2702 
Q 2975 2913 2975 3322 
Q 2975 3731 2742 3939 
Q 2509 4147 2053 4147 
L 1259 4147 
z
" transform="scale(0.015625)"/>
       <path id="DejaVuSans-41" d="M 2188 4044 
L 1331 1722 
L 3047 1722 
L 2188 4044 
z
M 1831 4666 
L 2547 4666 
L 4325 0 
L 3669 0 
L 3244 1197 
L 1141 1197 
L 716 0 
L 50 0 
L 1831 4666 
z
" transform="scale(0.015625)"/>
      </defs>
      <use xlink:href="#DejaVuSans-46"/>
      <use xlink:href="#DejaVuSans-69" x="50.269531"/>
      <use xlink:href="#DejaVuSans-4c" x="78.052734"/>
      <use xlink:href="#DejaVuSans-6f" x="132.015625"/>
      <use xlink:href="#DejaVuSans-52" x="193.197266"/>
      <use xlink:href="#DejaVuSans-41" x="258.679688"/>
     </g>
    </g>
    <g id="line2d_50">
     <path d="M 589.045313 56.424844 
L 604.045313 56.424844 
L 619.045313 56.424844 
" style="fill: none; stroke: #e76254; stroke-opacity: 0.9; stroke-width: 2.5; stroke-linecap: square"/>
    </g>
    <g id="text_26">
     <!-- LoRA_XS -->
     <g transform="translate(631.045313 61.674844) scale(0.15 -0.15)">
      <defs>
       <path id="DejaVuSans-5f" d="M 3263 -1063 
L 3263 -1509 
L -63 -1509 
L -63 -1063 
L 3263 -1063 
z
" transform="scale(0.015625)"/>
       <path id="DejaVuSans-58" d="M 403 4666 
L 1081 4666 
L 2241 2931 
L 3406 4666 
L 4084 4666 
L 2584 2425 
L 4184 0 
L 3506 0 
L 2194 1984 
L 872 0 
L 191 0 
L 1856 2491 
L 403 4666 
z
" transform="scale(0.015625)"/>
      </defs>
      <use xlink:href="#DejaVuSans-4c"/>
      <use xlink:href="#DejaVuSans-6f" x="53.962891"/>
      <use xlink:href="#DejaVuSans-52" x="115.144531"/>
      <use xlink:href="#DejaVuSans-41" x="180.626953"/>
      <use xlink:href="#DejaVuSans-5f" x="249.035156"/>
      <use xlink:href="#DejaVuSans-58" x="299.035156"/>
      <use xlink:href="#DejaVuSans-53" x="367.541016"/>
     </g>
    </g>
    <g id="line2d_51">
     <path d="M 589.045313 78.859219 
L 604.045313 78.859219 
L 619.045313 78.859219 
" style="fill: none; stroke: #528fad; stroke-opacity: 0.9; stroke-width: 2.5; stroke-linecap: square"/>
    </g>
    <g id="text_27">
     <!-- Random -->
     <g transform="translate(631.045313 84.109219) scale(0.15 -0.15)">
      <defs>
       <path id="DejaVuSans-64" d="M 2906 2969 
L 2906 4863 
L 3481 4863 
L 3481 0 
L 2906 0 
L 2906 525 
Q 2725 213 2448 61 
Q 2172 -91 1784 -91 
Q 1150 -91 751 415 
Q 353 922 353 1747 
Q 353 2572 751 3078 
Q 1150 3584 1784 3584 
Q 2172 3584 2448 3432 
Q 2725 3281 2906 2969 
z
M 947 1747 
Q 947 1113 1208 752 
Q 1469 391 1925 391 
Q 2381 391 2643 752 
Q 2906 1113 2906 1747 
Q 2906 2381 2643 2742 
Q 2381 3103 1925 3103 
Q 1469 3103 1208 2742 
Q 947 2381 947 1747 
z
" transform="scale(0.015625)"/>
       <path id="DejaVuSans-6d" d="M 3328 2828 
Q 3544 3216 3844 3400 
Q 4144 3584 4550 3584 
Q 5097 3584 5394 3201 
Q 5691 2819 5691 2113 
L 5691 0 
L 5113 0 
L 5113 2094 
Q 5113 2597 4934 2840 
Q 4756 3084 4391 3084 
Q 3944 3084 3684 2787 
Q 3425 2491 3425 1978 
L 3425 0 
L 2847 0 
L 2847 2094 
Q 2847 2600 2669 2842 
Q 2491 3084 2119 3084 
Q 1678 3084 1418 2786 
Q 1159 2488 1159 1978 
L 1159 0 
L 581 0 
L 581 3500 
L 1159 3500 
L 1159 2956 
Q 1356 3278 1631 3431 
Q 1906 3584 2284 3584 
Q 2666 3584 2933 3390 
Q 3200 3197 3328 2828 
z
" transform="scale(0.015625)"/>
      </defs>
      <use xlink:href="#DejaVuSans-52"/>
      <use xlink:href="#DejaVuSans-61" x="67.232422"/>
      <use xlink:href="#DejaVuSans-6e" x="128.511719"/>
      <use xlink:href="#DejaVuSans-64" x="191.890625"/>
      <use xlink:href="#DejaVuSans-6f" x="255.367188"/>
      <use xlink:href="#DejaVuSans-6d" x="316.548828"/>
     </g>
    </g>
   </g>
  </g>
 </g>
 <defs>
  <clipPath id="p6c34831623">
   <rect x="50.6" y="14.76" width="658.6" height="317.36"/>
  </clipPath>
  <clipPath id="p9e1c4d20b7">
   <rect x="379.9" y="62.364" width="296.37" height="95.208"/>
  </clipPath>
 </defs>
</svg>
